/* XPM */
static char *_582042690914[] = {
/* columns rows colors chars-per-pixel */
"64 64 52 1 ",
"  c #080306",
". c #090307",
"X c #090407",
"o c #150E1F",
"O c #150F1F",
"+ c #350D1C",
"@ c #360D1C",
"# c #360E1C",
"$ c #360E1D",
"% c #150F20",
"& c #4D1527",
"* c #4D1627",
"= c #4D1628",
"- c #612727",
"; c #622727",
": c #693D28",
"> c #693E28",
", c #6A3E28",
"< c #6A3E29",
"1 c #47354D",
"2 c #47364E",
"3 c #48364E",
"4 c #942108",
"5 c #942109",
"6 c #942209",
"7 c #9E5139",
"8 c #9E5239",
"9 c #9F5239",
"0 c #9F523A",
"q c #986541",
"w c #986542",
"e c #996542",
"r c #AB6F47",
"t c #AC6F47",
"y c #AC7047",
"u c #CF8451",
"i c #D08451",
"p c #D08452",
"a c #D08552",
"s c #C4986B",
"d c #C5996B",
"f c #6D7284",
"g c #6D7384",
"h c #6D7385",
"j c #6E7385",
"k c #980088",
"l c #9AA7B4",
"z c #9BA8B4",
"x c #9EBACB",
"c c #9FBACB",
"v c #9FBBCB",
"b c #9FBBCC",
/* pixels */
"kkkkkkkkkkkkkkkkkkkkkkkkkkkkkkkkkkkkkkkkkkkkkkkkkkkkkkkkkkkkkkkk",
"kkkkkkkkkkkkkkkkkkkkkkkkkkkkkkkkkkkkkkkkkkkkkkkkkkkkkkkkkkkkkkkk",
"kkkkkkkkkkkkkkkkkkkkkkkkkkkkkkkkkkkkkkkkkkkkkkkkkkkkkkkkkkkkkkkk",
"kkkkkkkkkkkkkkkkkkkkkkkkkkkkkkkkkkkkkkkkkkkkkkkkkkkkkkkkkkkkkkkk",
"kkkkkkkkkkkkkkkkkkkkkkkkkkkkkkkkkkkkkkkkkkkkkkkkkkkkkkkkkkkkkkkk",
"kkkkkkkkkkkkkkkkkkkkkkkkkkkkkkkkkkkkkkkkkkkkkkkkkkkkkkkkkkkkkkkk",
"kkkkkkkkkkkkkkkkkkkkkkkkkkkkkkkkkkkkkkkkkkkkkkkkkkkkkkkkkkkkkkkk",
"kkkkkkkkkkkkkkkkkkkkkkkkkkkkkkkkkkkkkkkkkkkkkkkkkkkkkkkkkkkkkkkk",
"kkkkkkkkkkkkkkkkkkkkkkkkkkkkkkkkkkkkkkkkkkkkkkkkkkkkkkkkkkkkkkkk",
"kkkkkkkkkkkkkkkkkkkkkkkkkkkkkkkkkkkkkkkkkkkkkkkkkkkkkkkkkkkkkkkk",
"kkkkkkkkkkkkkkkkkkkkkkkkkkkkkkkkkkkkkkkkkkkkkkkkkkkkkkkkkkkkkkkk",
"kkkkkkkkkkkkkkkkkkkkkkkkkkkkkkkkkkkkkkkkkkkkkkkkkkkkkkkkkkkkkkkk",
"kkkkkkkkkkkkkkkkkkkkkkkkkkkkkkkkkkkkkkkkkkkkkkkkkkkkkkkkkkkkkkkk",
"kkkkkkkkkkkkkkkkkkkkkkkkkkkkkkkkkkkkkkkkkkkkkkkkkkkkkkkkkkkkkkkk",
"kkkkkkkkkkkkkkkkkkkkkkkkkkkkkkkkkkkkkkkkkkkkkkkkkkkkkkkkkkkkkkkk",
"kkkkkkkkkkkkkkkkkkkkkkkkkkkkkkkkkkkkkkkkkkkkkkkkkkkkkkkkkkkkkkkk",
"kkkkkkkkkkkkkkkkkkkkkkkkkkkkkkkkkkkkkkkkkkkkkkkkkkkkkkkkkkkkkkkk",
"kkkkkkkkkkkkkkkkkkkkkkkkkkkkkkkkkkkkkkkkkkkkkkkkkkkkkkkkkkkkkkkk",
"kkkkkkkkkkkkkkkkkkkkkkkkkkkkkkkkkkkkkkkkkkkkkkkkkkkkkkkkkkkkkkkk",
"kkkkkkkkkkkkkkkkkkkkkkkkkkkkkkkkkkkkkkkkkkkkkkkkkkkkkkkkkkkkkkkk",
"kkkkkkkkkkkkkkkkkkkkkkkkkkkkkkkkkkkkkkkkkkkkkkkkkkkkkkkkkkkkkkkk",
"kkkkkkkkkkkkkkkkkkkkkkkkkkkkkkkkkkkkkkkkkkkkkkkkkkkkkkkkkkkkkkkk",
"kkkkkkkkkkkkkkkkkkkkkkkkkkkkkkkkkkkkkkkkkkkkkkkkkkkkkkkkkkkkkkkk",
"kkkkkkkkkkkkkkkkkkkkkkkkkkkkkkkkkkkkkkkkkkkkkkkkkkkkkkkkkkkkkkkk",
"kkkkkkkkkkkkkkkkkkkkkkkkkkkkkkkkkkkkkkkkkkkkkkkkkkkkkkkkkkkkkkkk",
"kkkkkkkkkkkkkkkkkkkkkkkkkkkkkkkkkkkkkkkkkkkkkkkkkkkkkkkkkkkkkkkk",
"kkkkkkkkkkkkkkkkkkkkkXX..1133hhhhffjh133113kkkkkkkkkkkkkkkkkkkkk",
"kkkkkkkkkkkkkkkkkkkkkXX..1133hhhhhfhh131113kkkkkkkkkkkkkkkkkkkkk",
"kkkkkkkkkkkkkkkkkkkoo11hhhhcccccccccccczzjj33kkkkkkkkkkkkkkkkkkk",
"kkkkkkkkkkkkkkkkkkkoo11hffhbvcbbccccccczzhj33kkkkkkkkkkkkkkkkkkk",
"kkkkkkkkkkkkkkkkkkk%%--11qqwqwwhjqqqqqqqqwq@@kkkkkkkkkkkkkkkkkkk",
"kkkkkkkkkkkkkkkkkkk%%--11qqwqqejjqqqqqqqqqq@@kkkkkkkkkkkkkkkkkkk",
"kkkkkkkkkkkkkkkkk33=&44&=yy88yr;-88tt8845<<,,kkkkkkkkkkkkkkkkkkk",
"kkkkkkkkkkkkkkkkk33&=44&=yy88rr;-88tt8845><<,kkkkkkkkkkkkkkkkkkk",
"kkkkkkkkkkkkkkkkk&&<>99-;uayyau>>yyaaaa88>>89##kkkkkkkkkkkkkkkkk",
"kkkkkkkkkkkkkkkkk=&<<99--aayyau>>tyaaaa89>>89##kkkkkkkkkkkkkkkkk",
"kkkkkkkkkkkkkkkkk--98ee:>aasdssqqsddsssyr>>qq11kkkkkkkkkkkkkkkkk",
"kkkkkkkkkkkkkkkkk--98ee:>aasddsqqssdsssyr>>qq11kkkkkkkkkkkkkkkkk",
"kkkkkkkkkkkkkkk#+1113hhhjjjbcbcbbbvvccbcbbbgggj23kkkkkkkkkkkkkkk",
"kkkkkkkkkkkkkkk#+1113hhhhjjbcccbccvcccccbbbgggj23kkkkkkkkkkkkkkk",
"kkkkkkkkkkkkkkkXXX.@@@# .;;8888;-8889>:&&@#--1113kkkkkkkkkkkkkkk",
"kkkkkkkkkkkkkkkX.X.@@@# .;-8988;-8888>:&&@@--1213kkkkkkkkkkkkkkk",
"kkkkkkkkkkkkkkkkk--9998X.aa89uu;-aaaaiayy=*99++kkkkkkkkkkkkkkkkk",
"kkkkkkkkkkkkkkkkk--9999 .aa09iu;-aaaaiayy**99++kkkkkkkkkkkkkkkkk",
"kkkkkkkkkkkkkkkkk@@>:88+@aaaaaa--aiaaty46*=98++kkkkkkkkkkkkkkkkk",
"kkkkkkkkkkkkkkkkk@@>>88++aaaaaa--aauaty46==99++kkkkkkkkkkkkkkkkk",
"kkkkkkkkkkkkkkkkk##----+#aa09au--99uurr46==99++kkkkkkkkkkkkkkkkk",
"kkkkkkkkkkkkkkkkk##----@+aa09au--99aurr46*=99++kkkkkkkkkkkkkkkkk",
"kkkkkkkkkkkkkkkkk@+----@@999888--78899946@@--##kkkkkkkkkkkkkkkkk",
"kkkkkkkkkkkkkkkkk@+----@@999888--88889946@@--##kkkkkkkkkkkkkkkkk",
"kkkkkkkkkkkkkkk##211223gffgggcccccxxvccllfggjjg11kkkkkkkkkkkkkkk",
"kkkkkkkkkkkkkkk##111123ggffggvvcccxxxcvllfggggj11kkkkkkkkkkkkkkk",
"kkkkkkkkkkkkkkkOO@@#@+++@11>>jg11fffj2211@@111111kkkkkkkkkkkkkkk",
"kkkkkkkkkkkkkkk%o@@#@++@@11>:jg11fgfj3311@+111111kkkkkkkkkkkkkkk",
"kkkkkkkkkkkkkkkkk.X++=&X &&6666@+6664--#+X **&&kkkkkkkkkkkkkkkkk",
"kkkkkkkkkkkkkkkkk..++=&. &&6666@+6664--#+X **&&kkkkkkkkkkkkkkkkk",
"kkkkkkkkkkkkkkkkkkk@@--oO**9999@+8888:>+@@@&&kkkkkkkkkkkkkkkkkkk",
"kkkkkkkkkkkkkkkkkkk+@--%O**9999@@8888:>+@@@&&kkkkkkkkkkkkkkkkkkk",
"kkkkkkkkkkkkkkkkkkk.X--@@  9998@@8889>>+@--@@kkkkkkkkkkkkkkkkkkk",
"kkkkkkkkkkkkkkkkkkk.X--@+  9998@@8889><+@--@#kkkkkkkkkkkkkkkkkkk",
"kkkkkkkkkkkkkkkkkkk.X++--++----@@---;===&--XXkkkkkkkkkkkkkkkkkkk",
"kkkkkkkkkkkkkkkkkkk.X++--+@----@@---;===&--XXkkkkkkkkkkkkkkkkkkk",
"kkkkkkkkkkkkkkkkkkkkkXX.       .X     ..X@@kkkkkkkkkkkkkkkkkkkkk",
"kkkkkkkkkkkkkkkkkkkkkXXXX      .X    .XXX@@kkkkkkkkkkkkkkkkkkkkk"
};
