/* XPM */
static char *da565602d3994bc7b9327fb2443acac4[] = {
/* columns rows colors chars-per-pixel */
"64 64 7 1 ",
"  c gray11",
". c #980088",
"X c #848484",
"o c gray57",
"O c gray59",
"+ c #AEAEAE",
"@ c #BBBBBB",
/* pixels */
"................................................................",
"................................................................",
"................................................................",
"................................................................",
"................................................................",
"................................................................",
"................................................................",
"................................................................",
"................................................................",
"................................................................",
"................................................................",
"................................................................",
"................................................................",
"................................................................",
"................................................................",
"................................................................",
"................................................................",
"................................................................",
"................................................................",
"................................................................",
"................................................................",
"................................................................",
"................................................................",
"................................................................",
"................................................................",
"................................................................",
"................................................................",
"................................................................",
"................................................................",
"................................................................",
"................................................................",
"................................................................",
"................................................................",
"................................................................",
"................................................................",
"................................................................",
"................................................................",
"................................................................",
"................................................................",
"................................................................",
"................................................................",
"................................................................",
"................................................................",
"................................................................",
"................................................................",
"................................................................",
"................................................................",
"................................................................",
"................................................................",
"@@@@@@@@@@@@@@@@@@@@@@@@@@@@+oXXXXo+@@@@@@@@@@@@@@@@@@@@@@@@@@@@",
"@@@@@@@@@@@@@@@@@@@@@@@@@@@@+oXXXXo+@@@@@@@@@@@@@@@@@@@@@@@@@@@@",
" O@  O@  O@  O@  O@  O@  O@  O@  O@  @O  @O  @O  @O  @O  @O  @O ",
" O@  O@  O@  O@  O@  O@  O@  O@  O@  @O  @O  @O  @O  @O  @O  @O ",
"@@@@@@@@@@@@@@@@@@@@@@@@@@@@+oXXXXo+@@@@@@@@@@@@@@@@@@@@@@@@@@@@",
"@@@@@@@@@@@@@@@@@@@@@@@@@@@@+oXXXXo+@@@@@@@@@@@@@@@@@@@@@@@@@@@@",
" O@  O@  O@  O@  O@  O@  O@  O@  O@  @O  @O  @O  @O  @O  @O  @O ",
" O@  O@  O@  O@  O@  O@  O@  O@  O@  @O  @O  @O  @O  @O  @O  @O ",
"@@@@@@@@@@@@@@@@@@@@@@@@@@@@+oXXXXo+@@@@@@@@@@@@@@@@@@@@@@@@@@@@",
"@@@@@@@@@@@@@@@@@@@@@@@@@@@@+oXXXXo+@@@@@@@@@@@@@@@@@@@@@@@@@@@@",
" O@  O@  O@  O@  O@  O@  O@  O@  O@  @O  @O  @O  @O  @O  @O  @O ",
" O@  O@  O@  O@  O@  O@  O@  O@  O@  @O  @O  @O  @O  @O  @O  @O ",
"@@@@@@@@@@@@@@@@@@@@@@@@@@@@+oXXXXo+@@@@@@@@@@@@@@@@@@@@@@@@@@@@",
"@@@@@@@@@@@@@@@@@@@@@@@@@@@@+oXXXXo+@@@@@@@@@@@@@@@@@@@@@@@@@@@@",
" O@  O@  O@  O@  O@  O@  O@  O@  O@  @O  @O  @O  @O  @O  @O  @O "
};
