/* XPM */
static char *_5a974cee9864375d48b9e1fdcfd59b7[] = {
/* columns rows colors chars-per-pixel */
"64 64 7 1 ",
"  c gray11",
". c #980088",
"X c #848484",
"o c gray57",
"O c gray59",
"+ c #AEAEAE",
"@ c #BBBBBB",
/* pixels */
"................................................................",
"................................................................",
"................................................................",
"................................................................",
"................................................................",
"................................................................",
"................................................................",
"................................................................",
"................................................................",
"................................................................",
"................................................................",
"................................................................",
"................................................................",
"................................................................",
"................................................................",
"................................................................",
"................................................................",
"................................................................",
"................................................................",
"................................................................",
"................................................................",
"................................................................",
"................................................................",
"................................................................",
"................................................................",
"................................................................",
"................................................................",
"................................................................",
"................................................................",
"................................................................",
"................................................................",
"................................................................",
"................................................................",
"................................................................",
"................................................................",
"................................................................",
"................................................................",
"................................................................",
"................................................................",
"................................................................",
"................................................................",
"................................................................",
"................................................................",
"................................................................",
"................................................................",
"................................................................",
"................................................................",
"................................................................",
"................................................................",
"................................................................",
"................................................................",
"................................................................",
"................................................................",
"................................................................",
"................................................................",
"................................................................",
"................................................................",
"@@@@@@@@@@@@@@@@@@@@@@@@@@@@+oXXXXo+@@@@@@@@@@@@@@@@@@@@@@@@@@@@",
"@@@@@@@@@@@@@@@@@@@@@@@@@@@@+oXXXXo+@@@@@@@@@@@@@@@@@@@@@@@@@@@@",
" O@  O@  O@  O@  O@  O@  O@  O@  O@  @O  @O  @O  @O  @O  @O  @O ",
" O@  O@  O@  O@  O@  O@  O@  O@  O@  @O  @O  @O  @O  @O  @O  @O ",
"@@@@@@@@@@@@@@@@@@@@@@@@@@@@+oXXXXo+@@@@@@@@@@@@@@@@@@@@@@@@@@@@",
"@@@@@@@@@@@@@@@@@@@@@@@@@@@@+oXXXXo+@@@@@@@@@@@@@@@@@@@@@@@@@@@@",
" O@  O@  O@  O@  O@  O@  O@  O@  O@  @O  @O  @O  @O  @O  @O  @O "
};
