/* XPM */
static char *ca04e7494b714b7c9cbe578667cbd7ae[] = {
/* columns rows colors chars-per-pixel */
"64 64 6 1 ",
"  c gray11",
". c #848484",
"X c gray57",
"o c gray59",
"O c #AEAEAE",
"+ c #BBBBBB",
/* pixels */
"++++++++++++++++++++++++++++OX....XO++++++++++++++++++++++++++++",
" o+  o+  o+  o+  o+  o+  o+  o+  o+  +o  +o  +o  +o  +o  +o  +o ",
" o+  o+  o+  o+  o+  o+  o+  o+  o+  +o  +o  +o  +o  +o  +o  +o ",
"++++++++++++++++++++++++++++OX....XO++++++++++++++++++++++++++++",
"++++++++++++++++++++++++++++OX....XO++++++++++++++++++++++++++++",
" o+  o+  o+  o+  o+  o+  o+  o+  o+  +o  +o  +o  +o  +o  +o  +o ",
" o+  o+  o+  o+  o+  o+  o+  o+  o+  +o  +o  +o  +o  +o  +o  +o ",
"++++++++++++++++++++++++++++OX....XO++++++++++++++++++++++++++++",
"++++++++++++++++++++++++++++OX....XO++++++++++++++++++++++++++++",
" o+  o+  o+  o+  o+  o+  o+  o+  o+  +o  +o  +o  +o  +o  +o  +o ",
" o+  o+  o+  o+  o+  o+  o+  o+  o+  +o  +o  +o  +o  +o  +o  +o ",
"++++++++++++++++++++++++++++OX....XO++++++++++++++++++++++++++++",
"++++++++++++++++++++++++++++OX....XO++++++++++++++++++++++++++++",
" o+  o+  o+  o+  o+  o+  o+  o+  o+  +o  +o  +o  +o  +o  +o  +o ",
" o+  o+  o+  o+  o+  o+  o+  o+  o+  +o  +o  +o  +o  +o  +o  +o ",
"++++++++++++++++++++++++++++OX....XO++++++++++++++++++++++++++++",
"++++++++++++++++++++++++++++OX....XO++++++++++++++++++++++++++++",
" o+  o+  o+  o+  o+  o+  o+  o+  o+  +o  +o  +o  +o  +o  +o  +o ",
" o+  o+  o+  o+  o+  o+  o+  o+  o+  +o  +o  +o  +o  +o  +o  +o ",
"++++++++++++++++++++++++++++OX....XO++++++++++++++++++++++++++++",
"++++++++++++++++++++++++++++OX....XO++++++++++++++++++++++++++++",
" o+  o+  o+  o+  o+  o+  o+  o+  o+  +o  +o  +o  +o  +o  +o  +o ",
" o+  o+  o+  o+  o+  o+  o+  o+  o+  +o  +o  +o  +o  +o  +o  +o ",
"++++++++++++++++++++++++++++OX....XO++++++++++++++++++++++++++++",
"++++++++++++++++++++++++++++OX....XO++++++++++++++++++++++++++++",
" o+  o+  o+  o+  o+  o+  o+  o+  o+  +o  +o  +o  +o  +o  +o  +o ",
" o+  o+  o+  o+  o+  o+  o+  o+  o+  +o  +o  +o  +o  +o  +o  +o ",
"++++++++++++++++++++++++++++OX....XO++++++++++++++++++++++++++++",
"++++++++++++++++++++++++++++OX....XO++++++++++++++++++++++++++++",
" o+  o+  o+  o+  o+  o+  o+  o+  o+  +o  +o  +o  +o  +o  +o  +o ",
" o+  o+  o+  o+  o+  o+  o+  o+  o+  +o  +o  +o  +o  +o  +o  +o ",
"++++++++++++++++++++++++++++OX....XO++++++++++++++++++++++++++++",
"++++++++++++++++++++++++++++OX....XO++++++++++++++++++++++++++++",
" o+  o+  o+  o+  o+  o+  o+  o+  o+  +o  +o  +o  +o  +o  +o  +o ",
" o+  o+  o+  o+  o+  o+  o+  o+  o+  +o  +o  +o  +o  +o  +o  +o ",
"++++++++++++++++++++++++++++OX....XO++++++++++++++++++++++++++++",
"++++++++++++++++++++++++++++OX....XO++++++++++++++++++++++++++++",
" o+  o+  o+  o+  o+  o+  o+  o+  o+  +o  +o  +o  +o  +o  +o  +o ",
" o+  o+  o+  o+  o+  o+  o+  o+  o+  +o  +o  +o  +o  +o  +o  +o ",
"++++++++++++++++++++++++++++OX....XO++++++++++++++++++++++++++++",
"++++++++++++++++++++++++++++OX....XO++++++++++++++++++++++++++++",
" o+  o+  o+  o+  o+  o+  o+  o+  o+  +o  +o  +o  +o  +o  +o  +o ",
" o+  o+  o+  o+  o+  o+  o+  o+  o+  +o  +o  +o  +o  +o  +o  +o ",
"++++++++++++++++++++++++++++OX....XO++++++++++++++++++++++++++++",
"++++++++++++++++++++++++++++OX....XO++++++++++++++++++++++++++++",
" o+  o+  o+  o+  o+  o+  o+  o+  o+  +o  +o  +o  +o  +o  +o  +o ",
" o+  o+  o+  o+  o+  o+  o+  o+  o+  +o  +o  +o  +o  +o  +o  +o ",
"++++++++++++++++++++++++++++OX....XO++++++++++++++++++++++++++++",
"++++++++++++++++++++++++++++OX....XO++++++++++++++++++++++++++++",
" o+  o+  o+  o+  o+  o+  o+  o+  o+  +o  +o  +o  +o  +o  +o  +o ",
" o+  o+  o+  o+  o+  o+  o+  o+  o+  +o  +o  +o  +o  +o  +o  +o ",
"++++++++++++++++++++++++++++OX....XO++++++++++++++++++++++++++++",
"++++++++++++++++++++++++++++OX....XO++++++++++++++++++++++++++++",
" o+  o+  o+  o+  o+  o+  o+  o+  o+  +o  +o  +o  +o  +o  +o  +o ",
" o+  o+  o+  o+  o+  o+  o+  o+  o+  +o  +o  +o  +o  +o  +o  +o ",
"++++++++++++++++++++++++++++OX....XO++++++++++++++++++++++++++++",
"++++++++++++++++++++++++++++OX....XO++++++++++++++++++++++++++++",
" o+  o+  o+  o+  o+  o+  o+  o+  o+  +o  +o  +o  +o  +o  +o  +o ",
" o+  o+  o+  o+  o+  o+  o+  o+  o+  +o  +o  +o  +o  +o  +o  +o ",
"++++++++++++++++++++++++++++OX....XO++++++++++++++++++++++++++++",
"++++++++++++++++++++++++++++OX....XO++++++++++++++++++++++++++++",
" o+  o+  o+  o+  o+  o+  o+  o+  o+  +o  +o  +o  +o  +o  +o  +o ",
" o+  o+  o+  o+  o+  o+  o+  o+  o+  +o  +o  +o  +o  +o  +o  +o ",
"++++++++++++++++++++++++++++OX....XO++++++++++++++++++++++++++++"
};
