/* XPM */
static char *_581039278344[] = {
/* columns rows colors chars-per-pixel */
"64 64 135 2 ",
"   c #3A242E",
".  c #372434",
"X  c #3B2534",
"o  c #3B2F35",
"O  c #3B2538",
"+  c #441B15",
"@  c #552B0F",
"#  c #4B261D",
"$  c #4D291F",
"%  c #572E14",
"&  c #592D15",
"*  c #512B1F",
"=  c #582F18",
"-  c #5B3016",
";  c #5B311A",
":  c #6B3614",
">  c #4E2622",
",  c #4F2923",
"<  c #4B272E",
"1  c #4D2A2D",
"2  c #512724",
"3  c #522A26",
"4  c #532728",
"5  c #532929",
"6  c #5A3320",
"7  c #5B3528",
"8  c #472632",
"9  c #492732",
"0  c #553338",
"q  c #773924",
"w  c #793C23",
"e  c #77372F",
"r  c #753A2E",
"t  c #783B2E",
"y  c #6A3C3A",
"u  c #773730",
"i  c #783730",
"p  c #753A31",
"a  c #793B30",
"s  c #6E403C",
"d  c #3D3D4E",
"f  c #3F3756",
"g  c #3E3955",
"h  c #3F3759",
"j  c #3E3859",
"k  c #4A3544",
"l  c #4B364B",
"z  c #4C3A4C",
"x  c #553741",
"c  c #5A3B41",
"v  c #423655",
"b  c #433954",
"n  c #41365A",
"m  c #413959",
"M  c #29524E",
"N  c #7B4E43",
"B  c #7D5E42",
"V  c #6E5952",
"C  c #55596E",
"Z  c #5A5E73",
"A  c #56616E",
"S  c #5A636E",
"D  c #576271",
"F  c #596272",
"G  c #6D6D6D",
"H  c #616375",
"J  c #616973",
"K  c #6C7574",
"L  c #7A7675",
"P  c #8F4F2D",
"I  c #904E24",
"U  c #8D512D",
"Y  c #91502E",
"T  c #99572E",
"R  c #874C35",
"E  c #8D4E36",
"W  c #8B4D38",
"Q  c #904F35",
"!  c #904F39",
"~  c #8D5036",
"^  c #8D5138",
"/  c #915132",
"(  c #A5632E",
")  c #A76436",
"_  c #A96536",
"`  c #A66933",
"'  c #A96836",
"]  c #A6653A",
"[  c #A96539",
"{  c #A6683B",
"}  c #A8693E",
"|  c #B66D36",
" . c #855444",
".. c #8E664A",
"X. c #9C6942",
"o. c #A56540",
"O. c #7E886C",
"+. c #CA8037",
"@. c #858D7D",
"#. c #888D7C",
"$. c #87907E",
"%. c #89907D",
"&. c #A19078",
"*. c #A1987B",
"=. c #ACAB7B",
"-. c #DF9844",
";. c #D7934A",
":. c #E19743",
">. c #E29943",
",. c #E39848",
"<. c #7C6C84",
"1. c #980088",
"2. c #868C82",
"3. c #898F82",
"4. c #899082",
"5. c #929787",
"6. c #9E9D86",
"7. c #ABA784",
"8. c #A4AD85",
"9. c #ADAA82",
"0. c #A5AE89",
"q. c #B5AC8D",
"w. c #B6BE9F",
"e. c #C4B38D",
"r. c #C4BE9B",
"t. c #B5C096",
"y. c #B7C39D",
"u. c #BAC49D",
"i. c #B6C3A2",
"p. c #BBC4A3",
"a. c #B7C0AA",
"s. c #BBC2AB",
"d. c #C3C196",
"f. c #C2C4A4",
"g. c #C9C5A2",
/* pixels */
"1.1.1.1.1.1.1.1.1.1.1.1.~ ^ :.: 5 5 5 5 5 3 5 3 5 5 5 5 5 5 5 5 5 5 5 5 5 5 5 5 5 5 5 5 5 5 5 3 5 5 5 5 1.1.1.1.1.1.1.1.1.1.1.1.",
"1.1.1.1.1.1.1.1.1.1.1.1.p ^ { , X X X . X X X . X X X X X   X X . X X X X X X   . X . X X X X . X X X X 1.1.1.1.1.1.1.1.1.1.1.1.",
"1.1.1.1.1.1.1.1.1.1.1.1.p ~ _ , X 5 5 5 X 5 5 5 3 X 5 3 5 . X 3 3 3 X 5 5 5 5 X 5 5 5 O 1 5 5 5 . 5 3 1 1.1.1.1.1.1.1.1.1.1.1.1.",
"1.1.1.1.1.1.1.1.1.1.1.1.t ~ ) $ X 5 3 5 X 5 3 5 5 . 5 5 5 .   4 5 5   5 5 5 5 X 3 5 5 O 5 3 5 5 X 5 5 < 1.1.1.1.1.1.1.1.1.1.1.1.",
"1.1.1.1.1.1.1.1.1.1.1.1.~ ~ _ $ . 5 5 5 X 5 5 5 3 X 5 5 4 X X 4 5 5 . 1 5 5 5 X 5 5 5 X < 4 3 3 X 5 3 9 1.1.1.1.1.1.1.1.1.1.1.1.",
"1.1.1.1.1.1.1.1.1.1.1.1.E ~ ) ,   E ~ _ p ~ ~ Y _ t Q ) _ r p E ~ _ r ~ ~ I { p ~ _ ) r W ~ E ) r / 5 9 1.1.1.1.1.1.1.1.1.1.1.1.",
"1.1.1.1.1.1.1.1.1.1.1.1.~ ~ :.&   Q E ) p ~ ~ Y ) r ~ [ _ u p ~ ~ _ p ~ ~ U _ p ~ ) ) p R ~ ~ ` r ~ 3 9 1.1.1.1.1.1.1.1.1.1.1.1.",
"1.1.1.1.1.1.1.1.1.1.1.1.~ ~ ) * . ~ E { p ~ } ' ) r ~ ` _ p r E ~ _ p ~ { _ [ p ~ ) ' p R ~ W ) p ~ 3 9 1.1.1.1.1.1.1.1.1.1.1.1.",
"1.1.1.1.1.1.1.1.1.1.1.1.~ ~ ) ,   ~ ~ ) i.p.N / ) p ~ _ ) r p ~ ~ ) r ~ ~ U { p ~ ) ) r W W ~ ) r ~ 3 8 1.1.1.1.1.1.1.1.1.1.1.1.",
"1.1.1.1.1.1.1.1.1.1.1.1.~ ~ | #   N N ..L &.d.d.) r ! _ ) p i ~ ~ ` p ~ Y T ) p ^ _ [ r W E ~ ` r ~ 3 9 1.1.1.1.1.1.1.1.1.1.1.1.",
"1.1.1.1.1.1.1.1.1.1.1.1.~ ~ :.& O b g Z X r 7.=.) p ~ [ ) i p E ~ ) p ~ ~ / ) r ~ ) _ r W E W ) p ~ 3 8 1.1.1.1.1.1.1.1.1.1.1.1.",
"1.1.1.1.1.1.1.1.1.1.1.1.p ~ >.@ . . F @.X p ^ U ) r E _ ) p p ^ ) [ r p E ~ { p ~ ' ) a W E ) ) p ~ 3 8 1.1.1.1.1.1.1.1.1.1.1.1.",
"1.1.1.1.1.1.1.1.1.1.1.1.p ~ ` 3 . S @.2.0.~ ~ Y ) r E E ) r r ^ ) ) r ^ ~ ^ { p ^ ~ ) r W ~ ) ` p ~ , 9 1.1.1.1.1.1.1.1.1.1.1.1.",
"1.1.1.1.1.1.1.1.1.1.1.1.r ~ _ 3 . F @.@.2.0.8.y.u.u.u.u.8.0.0.i.p.u.p.8.8.t.p.p.u.g._ p W ~ ) { r ~ 5 8 1.1.1.1.1.1.1.1.1.1.1.1.",
"1.1.1.1.1.1.1.1.1.1.1.1.r ~ ` 3 . S F S F F j j D h h F D g j F h h h A j h h h y i [ p W ~ ) ) p ~ 3 9 1.1.1.1.1.1.1.1.1.1.1.1.",
"1.1.1.1.1.1.1.1.1.1.1.1.p ~ ) 3 . g F F g y y y y y y s y y s s y y y y y y y y p ] [ r W ~ / ) r ~ 3 9 1.1.1.1.1.1.1.1.1.1.1.1.",
"1.1.1.1.1.1.1.1.1.1.1.1.p ~ ` $ O v F Z b r t p r p r t t p a p r r r r r p r u r ) _ p W ~ ~ ) r ~ 3 8 1.1.1.1.1.1.1.1.1.1.1.1.",
"1.1.1.1.1.1.1.1.1.1.1.1.p ~ >.= X . j f p ~ ] _ _ p ~ _ _ p p W ~ ) p W ) ) ` r ~ ) _ r W ~ ~ ) p ~ 5 9 1.1.1.1.1.1.1.1.1.1.1.1.",
"1.1.1.1.1.1.1.1.1.1.1.1.~ ~ ) # X h h h t E p.7._ p ~ ^ ) p p / ~ ) p ^ ) ) [ t E ~ ) p W W ~ ) p ~ 3 9 1.1.1.1.1.1.1.1.1.1.1.1.",
"1.1.1.1.1.1.1.1.1.1.1.1.~ ~ ) # 8 W ~ p v Z  .Q ) p E ~ [ p p W W { p W o.) _ p ~ ~ { r W ~ E ) r ~ 3 9 1.1.1.1.1.1.1.1.1.1.1.1.",
"1.1.1.1.1.1.1.1.1.1.1.1.p ~ ) # O ~ E ) t ~ { ) [ p E ` [ p p ~ ~ ) p W ~ [ [ r ~ ) ` r W E E ) p ~ 3 9 1.1.1.1.1.1.1.1.1.1.1.1.",
"1.1.1.1.1.1.1.1.1.1.1.1.W ~ -.@ 8 E ) [ r ~ E Q [ p ~ ) ) p p ! ` ) p W ^ Y ' t ~ _ ) r W E ` ) p ~ 3 9 1.1.1.1.1.1.1.1.1.1.1.1.",
"1.1.1.1.1.1.1.1.1.1.1.1.~ ~ -.- O ~ ) _ r ~ E Y ) i ^ ` [ p i ^ _ ) r ^ ~ / _ p ~ _ ) t W W ) ) r ^ 3 8 1.1.1.1.1.1.1.1.1.1.1.1.",
"1.1.1.1.1.1.1.1.1.1.1.1.~ ^ >.% O ~ _ ) r ~ ~ / ) p ^ ) ) p p ! ) _ p ^ ~ Y _ p ~ _ _ p W ! ) ` p ~ 3 9 1.1.1.1.1.1.1.1.1.1.1.1.",
"1.1.1.1.1.1.1.1.1.1.1.1.~ ~ :.; 8 / [ { p ~ ~ Y ) p ~ ) ) p p W ) [ p ^ ~ ~ ` t ~ _ ) r W ^ ) ) p ~ 3 9 1.1.1.1.1.1.1.1.1.1.1.1.",
"1.1.1.1.1.1.1.1.1.1.1.1.~ ~ [ > O ~ ) ) r ~ ~ ~ ) r ~ { ) p p W ) ) p ^ ~ / [ p ~ ) ) r E W ) _ r ~ 5 9 1.1.1.1.1.1.1.1.1.1.1.1.",
"1.1.1.1.1.1.1.1.1.1.1.1.p ~ ) # O Q ) ) p ~ ] ) _ r ~ _ ) r i ! ) ) p ^ [ _ [ t ~ ) _ r *.u.) _ p ~ 3 9 1.1.1.1.1.1.1.1.1.1.1.1.",
"1.1.1.1.1.1.1.1.1.1.1.1.r ~ ) > 8 Q ) ) r W ] ) _ r ~ _ _ p p ^ ) ) p ^ { _ _ r ~ _ _ a q.u.[ ' r ~ 3 8 1.1.1.1.1.1.1.1.1.1.1.1.",
"1.1.1.1.1.1.1.1.1.1.1.1.r ~ +.6 O ~ ) ) r E ] ) ` p ~ _ ` r p ^ ) ) p ^ ) _ ) p ~ ) _ c G K u.( r ~ 3 8 1.1.1.1.1.1.1.1.1.1.1.1.",
"1.1.1.1.1.1.1.1.1.1.1.1.p ~ >.; O E ) ) r ~ { ) ) r ~ ) ) r p ^ { ) p ^ ) ) [ u E { ` n Z F u.' p ~ , 8 1.1.1.1.1.1.1.1.1.1.1.1.",
"1.1.1.1.1.1.1.1.1.1.1.1./ ~ ) # 8 ~ _ ) r ~ { ) ` u ~ ~ [ r r W _ ) p ^ _ _ _ r ~ ~ v Z F Z Z p.f.~ 5 9 1.1.1.1.1.1.1.1.1.1.1.1.",
"1.1.1.1.1.1.1.1.1.1.1.1.^ ~ >.= O / _ ) r ~ E U ) u ~ E ) t i W ) ) p ~ ~ P [ r ~ X X h j j f h 0.^ 3 9 1.1.1.1.1.1.1.1.1.1.1.1.",
"1.1.1.1.1.1.1.1.1.1.1.1.r ~ ) $ 8 E [ ) r ~ E ~ _ r ~ _ _ p p ~ ~ _ p ^ ~ U ) r p h F D F D F F 8.~ 3 9 1.1.1.1.1.1.1.1.1.1.1.1.",
"1.1.1.1.1.1.1.1.1.1.1.1.r ~ { , O Q ) [ r ~ E P ) r ~ ~ [ p r ! Q ) p ^ { ) ) r r h f $.J S u.F %.u.3 9 1.1.1.1.1.1.1.1.1.1.1.1.",
"1.1.1.1.1.1.1.1.1.1.1.1.p E ) # O ! ) ) r ~ { ) ) p ~ _ ) p i ~ ) ) i ^ ) ) [ r p h 2.d C F m p.#.u.3 9 1.1.1.1.1.1.1.1.1.1.1.1.",
"1.1.1.1.1.1.1.1.1.1.1.1.p ~ ` + 8 E [ ` r ~ ] ) ) p ~ [ [ i r ^ ) ) p ^ _ ) _ r p j #.j F F b p.4.u.3 9 1.1.1.1.1.1.1.1.1.1.1.1.",
"1.1.1.1.1.1.1.1.1.1.1.1.p ~ ,.& O ~ [ _ p ~ ` ) ` p ~ _ ) p i ~ { ) p ^ [ [ _ p p h 2.A A D D u.4.u.3 8 1.1.1.1.1.1.1.1.1.1.1.1.",
"1.1.1.1.1.1.1.1.1.1.1.1.^ E ,.= X ^ [ [ r ~ ] { _ p ~ ) [ u p W ) ` p ^ [ ) _ p r m f #.8.8.8.5.#.u.3 9 1.1.1.1.1.1.1.1.1.1.1.1.",
"1.1.1.1.1.1.1.1.1.1.1.1.~ ~ :.& 8 ! [ ) p ~ E ) ` p ~ _ ) p p ^ _ ) p ^ / Y _ r p m m <.6.0.a.2.@.e.3 9 1.1.1.1.1.1.1.1.1.1.1.1.",
"1.1.1.1.1.1.1.1.1.1.1.1.~ ~ :.= O ^ ] ) p ~ ~ _ _ p ~ _ ) p r ~ ) _ r ^ { _ ) r r X X X . . X h m E 3 9 1.1.1.1.1.1.1.1.1.1.1.1.",
"1.1.1.1.1.1.1.1.1.1.1.1.^ ~ ) # O ~ [ _ p ~ { _ ) p E _ _ p p ~ ) ) p ^ ~ P _ p E r m F D F F f p ~ 3 9 1.1.1.1.1.1.1.1.1.1.1.1.",
"1.1.1.1.1.1.1.1.1.1.1.1.W ~ ) # O ~ [ _ p ~ { ) _ p ~ [ _ p r ~ ) ) p ^ P P ` i ~ t z H F D Z k p ~ 3 9 1.1.1.1.1.1.1.1.1.1.1.1.",
"1.1.1.1.1.1.1.1.1.1.1.1.p W _ # 8 ~ { _ p ~ { _ _ p ~ _ ) p u ^ ) ) p ^ ) U ) p E ) p b C F h ` r ~ 5 9 1.1.1.1.1.1.1.1.1.1.1.1.",
"1.1.1.1.1.1.1.1.1.1.1.1.^ ^ _ # O ^ [ _ r ~ ] [ _ p ^ [ ) p p W ) ) p ^ ) Y [ p ~ ) { p l f E ) p ~ 3 9 1.1.1.1.1.1.1.1.1.1.1.1.",
"1.1.1.1.1.1.1.1.1.1.1.1.~ ~ ) # O E [ ) p ~ { ` ) r ~ ~ { p p ~ ) ) p ^ { ) ' t ~ E ] p z h E ) p ~ 3 9 1.1.1.1.1.1.1.1.1.1.1.1.",
"1.1.1.1.1.1.1.1.1.1.1.1.~ ~ ,.% 8 E [ ) p ~ ] _ ) p ~ ) ) p r ~ ) ) p ^ ) ) _ p ~ ) ] p W W ) ) p ~ 3 9 1.1.1.1.1.1.1.1.1.1.1.1.",
"1.1.1.1.1.1.1.1.1.1.1.1.^ ~ { , O ~ { ) u.u.y.Y ) p ~ ~ [ u p ~ { ) r ^ E Y ' e ~ ~ ) p R ~ _ ` p ~ 5 9 1.1.1.1.1.1.1.1.1.1.1.1.",
"1.1.1.1.1.1.1.1.1.1.1.1.~ ~ ) , X x 0 V o B 7.r.) p E E ) p p ~ ) ) p W ~ ~ ' t ~ ~ ) p R ^ [ ) p ~ 3 9 1.1.1.1.1.1.1.1.1.1.1.1.",
"1.1.1.1.1.1.1.1.1.1.1.1.~ ~ ) , . b m F O ~ =.d.{ p E ~ ) p p ^ ) ) p ^ Q _ _ p W W ] p R ~ ) ) p ~ , 9 1.1.1.1.1.1.1.1.1.1.1.1.",
"1.1.1.1.1.1.1.1.1.1.1.1.p ~ { , X . D %.X ~ ~ ~ ) p ~ ~ ) p p E ) { p ^ [ ) ' p ! W ] p R E ) ` p ~ 5 9 1.1.1.1.1.1.1.1.1.1.1.1.",
"1.1.1.1.1.1.1.1.1.1.1.1.p W { > X F 3.@.u.~ ~ U ) p ~ ) ) p p ~ ) ) r ^ ~ I _ r ~ _ ) u R ~ ) ) p ~ , 9 1.1.1.1.1.1.1.1.1.1.1.1.",
"1.1.1.1.1.1.1.1.1.1.1.1.p ~ ) , . A O.3.@.#.#.@.w.w.w.i.@.#.@.#.p.p.@.s.2.2.F S ^ _ { p R ~ ~ ) r ^ 5 9 1.1.1.1.1.1.1.1.1.1.1.1.",
"1.1.1.1.1.1.1.1.1.1.1.1.p ~ ) , X Z F D D D g b F n h F D g m F m j j A f j m h S ) ) p R ~ ~ ` p ^ 3 9 1.1.1.1.1.1.1.1.1.1.1.1.",
"1.1.1.1.1.1.1.1.1.1.1.1.~ ~ { , X m F F g p r p p p p p p p p p p p p p p p p r ~ ) { p R ~ ~ ) r ^ 5 9 1.1.1.1.1.1.1.1.1.1.1.1.",
"1.1.1.1.1.1.1.1.1.1.1.1.~ E ) , . b Z Z l r t w w p t q w p p t t t p r w w w p W ) ) u R ~ ~ ) p ~ , 9 1.1.1.1.1.1.1.1.1.1.1.1.",
"1.1.1.1.1.1.1.1.1.1.1.1.~ W ) , X X h f p W ] ' _ p ~ ` ) r t ~ ~ { p ^ [ _ [ p ! ) [ p R ~ ~ ) r ~ 5 9 1.1.1.1.1.1.1.1.1.1.1.1.",
"1.1.1.1.1.1.1.1.1.1.1.1.p ~ ) 2 O f j j p ~ 8.9.) p ~ ~ ) r i ~ ~ ) p ^ { ) _ p ~ ~ [ p R ^ ~ ` p ^ , 9 1.1.1.1.1.1.1.1.1.1.1.1.",
"1.1.1.1.1.1.1.1.1.1.1.1.r ~ >.=   ~ ~ ) m F X._ ` r E ~ _ p a ~ Q ` p ^ ) ) [ p ^ ~ ) p W W ~ ) p ^ 5 9 1.1.1.1.1.1.1.1.1.1.1.1.",
"1.1.1.1.1.1.1.1.1.1.1.1.p ~ :.; . / ) ) p ~ Q U ) p ~ _ { e t ! ) ) t E _ ) [ p W _ ] p R ~ ) ) r ~ 3 9 1.1.1.1.1.1.1.1.1.1.1.1.",
"1.1.1.1.1.1.1.1.1.1.1.1.p ~ -.;   E [ _ p ~ ~ Y ) p E W ) r t ! ) ) r E ) _ _ p ^ ! _ p R ~ ) ) p ~ 3 9 1.1.1.1.1.1.1.1.1.1.1.1.",
"1.1.1.1.1.1.1.1.1.1.1.1.p E ;.7 . / _ ) p ~ E Y ) p ~ ~ ) u r ^ _ [ p ^ ) _ _ u ^ ~ [ p W E _ ) p ^ 3 9 1.1.1.1.1.1.1.1.1.1.1.1.",
"1.1.1.1.1.1.1.1.1.1.1.1.r ~ _ $ . / _ _ p ~ ~ Y ) r ~ E ) r p W ) { p ^ ] _ [ p ~ ~ ) p R ~ ) _ p ^ 3 9 1.1.1.1.1.1.1.1.1.1.1.1.",
"1.1.1.1.1.1.1.1.1.1.1.1.p ~ ) #   / _ ) p ~ { { ) r ~ [ [ p i ^ ) ) p ^ ) ) [ p E ) ) p R E ) _ r ~ 3 9 1.1.1.1.1.1.1.1.1.1.1.1.",
"1.1.1.1.1.1.1.1.1.1.1.1.M ~ _ , . ~ _ _ r ~ ] ) _ p ^ _ ) p a W _ ) p W ) ) _ p E ) ) p W W { ` p ~ 3 9 1.1.1.1.1.1.1.1.1.1.1.1."
};
