/* XPM */
static char *result[] = {
/* columns rows colors chars-per-pixel */
"64 64 3 1 ",
"  c #B40000",
". c #EA1C1C",
"X c #980088",
/* pixels */
"XXXXXXXXXXXXXXXXXXXXXXXXXXXXXXXXXXXXXXXXXXXXXXXXXXXXXXXXXXXXXXXX",
"XXXXXXXXXXXXXXXXXXXXXXXXXXXXXXXXXXXXXXXXXXXXXXXXXXXXXXXXXXXXXXXX",
"XXXXXXXXXXXXXXXXXXXXXXXXXXXXXXXXXXXXXXXXXXXXXXXXXXXXXXXXXXXXXXXX",
"XXXXXXXXXXXXXXXXXXXXXXXXXXXXXXXXXXXXXXXXXXXXXXXXXXXXXXXXXXXXXXXX",
"XXXXXXXXXXXXXXXXXXXXXXXXXXXXXXXXXXXXXXXXXXXXXXXXXXXXXXXXXXXXXXXX",
"XXXXXXXXXXXXXXXXXXXXXXXXXXXXXXXXXXXXXXXXXXXXXXXXXXXXXXXXXXXXXXXX",
"XXXXXXXXXXXXXXXXXXXXXXXXXXXXXXXXXXXXXXXXXXXXXXXXXXXXXXXXXXXXXXXX",
"XXXXXXXXXXXXXXXXXXXXXXXXXXXXXXXXXXXXXXXXXXXXXXXXXXXXXXXXXXXXXXXX",
"XXXXXXXX               XXXXXXXXXXXXXXXXXX               XXXXXXXX",
"XXXXXXXX               XXXXXXXXXXXXXXXXXX               XXXXXXXX",
"XXXXXXXX               XXXXXXXXXXXXXXXXXX               XXXXXXXX",
"XXXXXXXX               XXXXXXXXXXXXXXXXXX               XXXXXXXX",
"XXXX       ........       XXXXXXXXXXXX                      XXXX",
"XXXX       ........       XXXXXXXXXXXX                      XXXX",
"XXXX       ........       XXXXXXXXXXXX                      XXXX",
"XXXX       ........       XXXXXXXXXXXX                      XXXX",
"        ...                   XXXX                              ",
"        ...                   XXXX                              ",
"        ...                   XXXX                              ",
"        ...                                                     ",
"        ...                                                     ",
"        ...                                                     ",
"        ...                                                     ",
"                                                                ",
"                                                                ",
"                                                                ",
"                                                                ",
"XXXX       ....                                             XXXX",
"XXXX       ....                                             XXXX",
"XXXX       ....                                             XXXX",
"XXXX       ....                                             XXXX",
"XXXXXXXX                                                XXXXXXXX",
"XXXXXXXX                                                XXXXXXXX",
"XXXXXXXX                                                XXXXXXXX",
"XXXXXXXXXXX                                          XXXXXXXXXXX",
"XXXXXXXXXXX                                          XXXXXXXXXXX",
"XXXXXXXXXXX                                          XXXXXXXXXXX",
"XXXXXXXXXXX                                          XXXXXXXXXXX",
"XXXXXXXXXXXXXXX                                  XXXXXXXXXXXXXXX",
"XXXXXXXXXXXXXXX                                  XXXXXXXXXXXXXXX",
"XXXXXXXXXXXXXXX                                  XXXXXXXXXXXXXXX",
"XXXXXXXXXXXXXXX                                  XXXXXXXXXXXXXXX",
"XXXXXXXXXXXXXXXXXXX                          XXXXXXXXXXXXXXXXXXX",
"XXXXXXXXXXXXXXXXXXX                          XXXXXXXXXXXXXXXXXXX",
"XXXXXXXXXXXXXXXXXXX                          XXXXXXXXXXXXXXXXXXX",
"XXXXXXXXXXXXXXXXXXX                          XXXXXXXXXXXXXXXXXXX",
"XXXXXXXXXXXXXXXXXXXXXXX                  XXXXXXXXXXXXXXXXXXXXXXX",
"XXXXXXXXXXXXXXXXXXXXXXX                  XXXXXXXXXXXXXXXXXXXXXXX",
"XXXXXXXXXXXXXXXXXXXXXXX                  XXXXXXXXXXXXXXXXXXXXXXX",
"XXXXXXXXXXXXXXXXXXXXXXXXXX            XXXXXXXXXXXXXXXXXXXXXXXXXX",
"XXXXXXXXXXXXXXXXXXXXXXXXXX            XXXXXXXXXXXXXXXXXXXXXXXXXX",
"XXXXXXXXXXXXXXXXXXXXXXXXXX            XXXXXXXXXXXXXXXXXXXXXXXXXX",
"XXXXXXXXXXXXXXXXXXXXXXXXXX            XXXXXXXXXXXXXXXXXXXXXXXXXX",
"XXXXXXXXXXXXXXXXXXXXXXXXXXXXXX    XXXXXXXXXXXXXXXXXXXXXXXXXXXXXX",
"XXXXXXXXXXXXXXXXXXXXXXXXXXXXXX    XXXXXXXXXXXXXXXXXXXXXXXXXXXXXX",
"XXXXXXXXXXXXXXXXXXXXXXXXXXXXXX    XXXXXXXXXXXXXXXXXXXXXXXXXXXXXX",
"XXXXXXXXXXXXXXXXXXXXXXXXXXXXXX    XXXXXXXXXXXXXXXXXXXXXXXXXXXXXX",
"XXXXXXXXXXXXXXXXXXXXXXXXXXXXXXXXXXXXXXXXXXXXXXXXXXXXXXXXXXXXXXXX",
"XXXXXXXXXXXXXXXXXXXXXXXXXXXXXXXXXXXXXXXXXXXXXXXXXXXXXXXXXXXXXXXX",
"XXXXXXXXXXXXXXXXXXXXXXXXXXXXXXXXXXXXXXXXXXXXXXXXXXXXXXXXXXXXXXXX",
"XXXXXXXXXXXXXXXXXXXXXXXXXXXXXXXXXXXXXXXXXXXXXXXXXXXXXXXXXXXXXXXX",
"XXXXXXXXXXXXXXXXXXXXXXXXXXXXXXXXXXXXXXXXXXXXXXXXXXXXXXXXXXXXXXXX",
"XXXXXXXXXXXXXXXXXXXXXXXXXXXXXXXXXXXXXXXXXXXXXXXXXXXXXXXXXXXXXXXX",
"XXXXXXXXXXXXXXXXXXXXXXXXXXXXXXXXXXXXXXXXXXXXXXXXXXXXXXXXXXXXXXXX"
};
