/* XPM */
static char *result[] = {
/* columns rows colors chars-per-pixel */
"32 32 3 1 ",
"  c #B40000",
". c #EA1C1C",
"X c None",
/* pixels */
"XXXXXXXXXXXXXXXXXXXXXXXXXXXXXXXX",
"XXXXXXXXXXXXXXXXXXXXXXXXXXXXXXXX",
"XXXXXXXXXXXXXXXXXXXXXXXXXXXXXXXX",
"XXXXXXXXXXXXXXXXXXXXXXXXXXXXXXXX",
"XXXXXXXXXXXXXXXXXXXXXXXXXXXXXXXX",
"XXXXXXXXXXXXXXXXXXXXXXXXXXXXXXXX",
"XXXXXXXXXXXXXXXXXXXXXXXXXXXXXXXX",
"XXXXXXXXXXXXXXXXXXXXXXXXXXXXXXXX",
"XXXXXXXXXXXXXXXXXXXXXXXXXXXXXXXX",
"XXXXXXXXX    XXXXX    XXXXXXXXXX",
"XXXXXXXX  ..  XXX      XXXXXXXXX",
"XXXXXXX  .     X        XXXXXXXX",
"XXXXXXX  .              XXXXXXXX",
"XXXXXXX                 XXXXXXXX",
"XXXXXXXX  .            XXXXXXXXX",
"XXXXXXXXX             XXXXXXXXXX",
"XXXXXXXXXX           XXXXXXXXXXX",
"XXXXXXXXXXX         XXXXXXXXXXXX",
"XXXXXXXXXXXX       XXXXXXXXXXXXX",
"XXXXXXXXXXXXX     XXXXXXXXXXXXXX",
"XXXXXXXXXXXXXX   XXXXXXXXXXXXXXX",
"XXXXXXXXXXXXXXX XXXXXXXXXXXXXXXX",
"XXXXXXXXXXXXXXXXXXXXXXXXXXXXXXXX",
"XXXXXXXXXXXXXXXXXXXXXXXXXXXXXXXX",
"XXXXXXXXXXXXXXXXXXXXXXXXXXXXXXXX",
"XXXXXXXXXXXXXXXXXXXXXXXXXXXXXXXX",
"XXXXXXXXXXXXXXXXXXXXXXXXXXXXXXXX",
"XXXXXXXXXXXXXXXXXXXXXXXXXXXXXXXX",
"XXXXXXXXXXXXXXXXXXXXXXXXXXXXXXXX",
"XXXXXXXXXXXXXXXXXXXXXXXXXXXXXXXX",
"XXXXXXXXXXXXXXXXXXXXXXXXXXXXXXXX",
"XXXXXXXXXXXXXXXXXXXXXXXXXXXXXXXX"
};
