/* XPM */
static char *_581042114960[] = {
/* columns rows colors chars-per-pixel */
"64 64 22 1 ",
"  c #020001",
". c #030102",
"X c #130212",
"o c #140112",
"O c #160113",
"+ c #F0DF11",
"@ c yellow",
"# c #FFCF27",
"$ c #FFCE2A",
"% c #FFCE2E",
"& c #FFCE31",
"* c #FFCD32",
"= c #FFCD36",
"- c #FFCE36",
"; c #FFCC3B",
": c #FFCD3C",
"> c #DE8E4C",
", c #DF8F4C",
"< c #DC8B50",
"1 c #D88458",
"2 c #980088",
"3 c #FFFFFD",
/* pixels */
"2222222222222222222222222222222222222222222222222222222222222222",
"2222222222222222222222222222222222222222222222222222222222222222",
"2222222222222222222222222222222222222222222222222222222222222222",
"2222222222222222222222222222222222222222222222222222222222222222",
"2222222222222222222222222222222222222222222222222222222222222222",
"2222222222222222222222222222222222222222222222222222222222222222",
"2222222222222222222222222222222222222222222222222222222222222222",
"2222222222222222222222222222222222222222222222222222222222222222",
"2222222222222222222222222222222222222222222222222222222222222222",
"2222222222222222222222222222222222222222222222222222222222222222",
"2222222222222222222222222222222222222222222222222222222222222222",
"2222222222222222222222222222222222222222222222222222222222222222",
"2222222222222222222222222222222222222222222222222222222222222222",
"2222222222222222222222222222222222222222222222222222222222222222",
"2222222222222222222222222222222222222222222222222222222222222222",
"2222222222222222222222222222222222222222222222222222222222222222",
"2222222222222222222222222222222222222222222222222222222222222222",
"2222222222222222222222222222222222222222222222222222222222222222",
"2222222222222222222222222222222222222222222222222222222222222222",
"2222222222222222222222222222222222222222222222222222222222222222",
"2222222222222222222222222222222222222222222222222222222222222222",
"2222222222222222222222222222222222222222222222222222222222222222",
"2222222222222222222222222222222222222222222222222222222222222222",
"2222222222222222222222222222222222222222222222222222222222222222",
"2222222222222222222222222222222222222222222222222222222222222222",
"2222222222222222222222222222222222222222222222222222222222222222",
"2222222222222222222222222222222222222222222222222222222222222222",
"2222222222222222222222222222222222222222222222222222222222222222",
"2222222222222222222222222222222222222222222222222222222222222222",
"2222222222222222222222222222222222222222222222222222222222222222",
"2222222222222222222222222222222222222222222222222222222222222222",
"2222222222222222222222222222222222222222222222222222222222222222",
"2222222222222222222222222222222222222222222222222222222222222222",
"2222222222222222222222222222222222222222222222222222222222222222",
"2222222222222222222222222222222222222222222222222222222222222222",
"2222222222222222222222222222222222222222222222222222222222222222",
"2222222222222222222222222222222222222222222222222222222222222222",
"2222222222222222222222222222222222222222222222222222222222222222",
"2222222222222222222222222222222222222222222222222222222222222222",
"2222222222222222222222222222222222222222222222222222222222222222",
"2222222222222222222222222222222222222222222222222222222222222222",
"2222222222222222222222222222222222222222222222222222222222222222",
"2222222222222222222222222222222222222222222222222222222222222222",
"2222222222222222222222222222222222222222222222222222222222222222",
"22222222222222222222222222oo222222222oo2222222222222222222222222",
"2222222222222222222222222o++X2XXooo2o++o222222222222222222222222",
"222222222222222222222222X>@@ X*%%%=X @@<o22222222222222222222222",
"222222222222222222222222 %@@  %$$$*  @@= 22222222222222222222222",
"222222222222222222222222 =@@*=@@@@@**@@: 22222222222222222222222",
"2222222222222222222222222X%$@@3@@@@@@%=o222222222222222222222222",
"22222222222222222222222222o.@ @@@@@ % o2222222222222222222222222",
"2222222222222222222222222o,$@  @@@  @$>o222222222222222222222222",
"2222222222222222222222222o%$@  @@@  @%=o222222222222222222222222",
"2222222222222222222222222o=*@@ @@@ @@*;o222222222222222222222222",
"22222222222222222222222222o *%@@@@*** X2222222222222222222222222",
"2222222222222222222222222222 .%%%%=  222222222222222222222222222",
"222222222222222222222222222222 @%= 22222222222222222222222222222",
"222222222222222222222222222222 @%= 22222222222222222222222222222",
"22222222222222222222222222222  @%= 22222222222222222222222222222",
"2222222222222222222222222222 @3@%= 22222222222222222222222222222",
"2222222222222222222222222222 *%@%= 22222222222222222222222222222",
"22222222222222222222222222222  @%= 22222222222222222222222222222",
"22222222222222222222222222222oX+*1X22222222222222222222222222222",
"2222222222222222222222222222222X X222222222222222222222222222222"
};
