/* XPM */
static char *_581037155954[] = {
/* columns rows colors chars-per-pixel */
"64 64 10 1 ",
"  c #5B5B5B",
". c #727272",
"X c #64B428",
"o c #7DD73A",
"O c #92EA50",
"+ c #980088",
"@ c gray54",
"# c #F6F1B7",
"$ c #FFFDE5",
"% c white",
/* pixels */
"+++++++++++++++++++++++++++++++@ +++++++++++++++++++++++++++++++",
"+++++++++++++++++++++++++++++++@ +++++++++++++++++++++++++++++++",
"+++++++++++++++++++++++++++++++@ +++++++++++++++++++++++++++++++",
"+++++++++++++++++++++++++++++++@ +++++++++++++++++++++++++++++++",
"+++++++++++++++++++++++++++++++@ +++++++++++++++++++++++++++++++",
"+++++++++++++++++++++++++++++++@ +++++++++++++++++++++++++++++++",
"+++++++++++++++++++++++++++++++@ +++++++++++++++++++++++++++++++",
"+++++++++++++++++++++++++++++++@ +++++++++++++++++++++++++++++++",
"+++++++++++++++++++++++++++++++@ +++++++++++++++++++++++++++++++",
"+++++++++++++++++++++++++++++++@ +++++++++++++++++++++++++++++++",
"+++++++++++++++++++++++++++++++@ +++++++++++++++++++++++++++++++",
"+++++++++++++++++++++++++++++++@ +++++++++++++++++++++++++++++++",
"++++++++++++++++++++++++++++++@.. ++++++++++++++++++++++++++++++",
"++++++++++++++++++++++++++++++@ . ++++++++++++++++++++++++++++++",
"+++++++++++++++++++++++++++++@.. . +++++++++++++++++++++++++++++",
"+++++++++++++++++++++++++++++@. .  +++++++++++++++++++++++++++++",
"++++++++++++++++++++++++++++@..XX . ++++++++++++++++++++++++++++",
"++++++++++++++++++++++++++++X.oXoX X++++++++++++++++++++++++++++",
"+++++++++++++++++++++++++++oXXXoXoXXX+++++++++++++++++++++++++++",
"++++++++++++++++++++++++++OooXoooXooXX++++++++++++++++++++++++++",
"+++++++++++++++++++++++++OoOoooooooXoXX+++++++++++++++++++++++++",
"+++++++++++++++++++++++oOooooooXooXoXoXXX+++++++++++++++++++++++",
"+++++++++++++++++++++oOooOooooooXooooXoXXXX+++++++++++++++++++++",
"++++++++++++++++++++OooOooooX....  oooXoXoXX++++++++++++++++++++",
"+++++++++++++++++++OoOoooX...$####$.  oooXoXX+++++++++++++++++++",
"+++++++++++++++++++@@@@@..$##%%%%%%##$...    +++++++++++++++++++",
"++++++++++++++++++%$$$$###%%%%%++%%%%%###$$$$%++++++++++++++++++",
"+++++++++++++++++++%%%%%%%%%+++++++++%%%%%%%%+++++++++++++++++++",
"++++++++++++++++++++++++++++++++++++++++++++++++++++++++++++++++",
"++++++++++++++++++++++++++++++++++++++++++++++++++++++++++++++++",
"++++++++++++++++++++++++++++++++++++++++++++++++++++++++++++++++",
"++++++++++++++++++++++++++++++++++++++++++++++++++++++++++++++++",
"++++++++++++++++++++++++++++++++++++++++++++++++++++++++++++++++",
"++++++++++++++++++++++++++++++++++++++++++++++++++++++++++++++++",
"++++++++++++++++++++++++++++++++++++++++++++++++++++++++++++++++",
"++++++++++++++++++++++++++++++++++++++++++++++++++++++++++++++++",
"++++++++++++++++++++++++++++++++++++++++++++++++++++++++++++++++",
"++++++++++++++++++++++++++++++++++++++++++++++++++++++++++++++++",
"++++++++++++++++++++++++++++++++++++++++++++++++++++++++++++++++",
"++++++++++++++++++++++++++++++++++++++++++++++++++++++++++++++++",
"++++++++++++++++++++++++++++++++++++++++++++++++++++++++++++++++",
"++++++++++++++++++++++++++++++++++++++++++++++++++++++++++++++++",
"++++++++++++++++++++++++++++++++++++++++++++++++++++++++++++++++",
"++++++++++++++++++++++++++++++++++++++++++++++++++++++++++++++++",
"++++++++++++++++++++++++++++++++++++++++++++++++++++++++++++++++",
"++++++++++++++++++++++++++++++++++++++++++++++++++++++++++++++++",
"++++++++++++++++++++++++++++++++++++++++++++++++++++++++++++++++",
"++++++++++++++++++++++++++++++++++++++++++++++++++++++++++++++++",
"++++++++++++++++++++++++++++++++++++++++++++++++++++++++++++++++",
"++++++++++++++++++++++++++++++++++++++++++++++++++++++++++++++++",
"++++++++++++++++++++++++++++++++++++++++++++++++++++++++++++++++",
"++++++++++++++++++++++++++++++++++++++++++++++++++++++++++++++++",
"++++++++++++++++++++++++++++++++++++++++++++++++++++++++++++++++",
"++++++++++++++++++++++++++++++++++++++++++++++++++++++++++++++++",
"++++++++++++++++++++++++++++++++++++++++++++++++++++++++++++++++",
"++++++++++++++++++++++++++++++++++++++++++++++++++++++++++++++++",
"++++++++++++++++++++++++++++++++++++++++++++++++++++++++++++++++",
"++++++++++++++++++++++++++++++++++++++++++++++++++++++++++++++++",
"++++++++++++++++++++++++++++++++++++++++++++++++++++++++++++++++",
"++++++++++++++++++++++++++++++++++++++++++++++++++++++++++++++++",
"++++++++++++++++++++++++++++++++++++++++++++++++++++++++++++++++",
"++++++++++++++++++++++++++++++++++++++++++++++++++++++++++++++++",
"++++++++++++++++++++++++++++++++++++++++++++++++++++++++++++++++",
"++++++++++++++++++++++++++++++++++++++++++++++++++++++++++++++++"
};
