/* XPM */
static char *_581036807361[] = {
/* columns rows colors chars-per-pixel */
"64 64 21 1 ",
"  c #980088",
". c #980188",
"X c #9A0489",
"o c #9A058A",
"O c #9B088B",
"+ c #9C0A8C",
"@ c #9E108E",
"# c #A11690",
"$ c #A21891",
"% c #A41F93",
"& c #FAEEE6",
"* c #FAF5E2",
"= c #FCF9E5",
"- c #FDFBE4",
"; c #FCFCE4",
": c #FDFCE4",
"> c #FCFCE5",
", c #FCFCE6",
"< c #FEFBE9",
"1 c #FFFBE9",
"2 c #FFFBEB",
/* pixels */
"                ................................................",
"                ................................................",
"                ................................................",
"                ................................................",
"                ................................................",
"                ................................................",
"                ................................................",
"                ................................................",
"                ................................................",
"                ................................................",
"                ................................................",
"                ................................................",
"                ................................................",
"                ................................................",
"                ................................................",
"                ................................................",
"                        ........................................",
"                        ........................................",
"                        ........................................",
"                        ........................................",
"                        ........................................",
"                        ........................................",
"                        ........................................",
"                        ........................................",
"                    .........-,,-,,..   ........................",
"                    ......,-,,,,,;,,-,  ........................",
"                  ,,,,,,,,;,,,,,,,,,,,,,,,,,-,..................",
"                  ,,;,;,;,;,,;,;,;,;;,,,,;,;,;..................",
"                 X,;,;,;,;;,;,;,;,;,,;,;;,;,,,..................",
"                .#;,;,;,;,,;,;,;,;,;;,;,,;,;,-#.................",
"                .>>;,;,;,,,,;,;,;,;,;,,,;,;,;,,.................",
"                .;,,;,;,,,,;,;,;,;,;,,,,,;,;,;-.................",
"................%;;;;;;;;;;;;;;;;;;;;;;;;;;;;;;%................",
"................;,;,;,;,,;,;,;,;,;,;;,,;;,,;;,;,................",
"................;;;;;;;;;;;;;;;;;;;;;;;;;;;;;;;;................",
"...............,;,;,;,;,,;,;,;,;;,;,,;,;;,;,,;,;-...............",
"...............,;;;;;;;;;;;;;;;;;;;;;;;;;;;;;;;;;...............",
"...............-,;;,;,,;;,,;,,;,,;,;;,,;,;;,;,;,-...............",
"..............;;;;;;;;;;;;;;;;;;;;;;;;;;;;;;;;;;,;..............",
"..............;;;;;;;;;;;;;;;;;;;;;;;;;;;;;;;;;;;;..............",
".............O;;;;;;;;;;,,;;;;;;;;;;,;;;;;;;,;;;;-X.............",
".............--------------------------------------.............",
".............--------------------------------------.............",
"............X--------------------------------------O............",
"............-------------------,--------------------............",
"............,,,,,,,,,,,,>-,,,-,,,,;,,,;,,,;,,,;,,,,,............",
"...........@*,,;,;,;;,,;-,,-,,,,,;,;,,,;,;,;,,,;,;,*@...........",
"...........,,,,,,,,,,,,,,,,,,,,,,,,,,,,,,,,,,,,,,,,,-...........",
"...........--,,,,,,,,,,,,,,,,,,,,,,,,,,,,,,,,,,,,,,,-           ",
"..........$-,,,,,,,,,,,,,,,,,,,,,,,,,,,,,,,,,,,,,,,,,$          ",
"..........-,,,,,,,,,,,,,,,,,,,,,,,,,,,,,,,,,,,,,,,,,,,          ",
"..........,,,,,,,,,,,,,,,,,,,,,,,,,,,,,,,,,,,,1-,,,,,>          ",
"........ >>111,,1-111-111,,,1,1,,,,11-1,11,,11=1,,11>>>         ",
"........ 1>1-1>11--1-1,,1,111,-11=,,,1,1,,,1,,--1--1>11         ",
"........ 11--11-2=1,1111111-=1111111,111=11,2211111111,         ",
"........1-1111112,111,,11-11-1-1-11-11-11111>111-11->111        ",
"        111,121,1,122==11=,12,,111,111,1<<,,222-,<<<><<<        ",
"        112,1,121=1,1122122221111121,2,1,<2<1-2,<<<<<<<<        ",
"       11>11,1,222,1,11,,21,,111,11,2,22,2<<1<<<<,<<<<<<1       ",
"       111112111222111111211111111112111<<<<112<<<<<<<<<1       ",
"      +221212121212121212121121212122222<2<2<2<222<2<2<2<X      ",
"      21121222121212121212122121212122-22<2<2<2<2<2<2<2<22      ",
"      1221211221211221211221122112122111<22<<2<22<<2<22<<2      ",
"     +&22222222222222222222222222222222222222222222222222&+     "
};
