/* XPM */
static char *_8b765d649fc4831a30929f9630a4eda[] = {
/* columns rows colors chars-per-pixel */
"64 64 14 1 ",
"  c black",
". c #573F22",
"X c #583F22",
"o c #584022",
"O c #956724",
"+ c #956824",
"@ c #956825",
"# c #D99600",
"$ c #D99700",
"% c #DA9700",
"& c #F5D044",
"* c #F5D045",
"= c #F5D145",
"- c #980088",
/* pixels */
"----------------------------------------------------------------",
"-------------------------------------------        -------------",
"-------------------------------------------        -------------",
"---------------------------------------    %%%%%%%%    ---------",
"---------------------------------------    %%%%%%%%    ---------",
"-------------------------------------  ==%%O@OO@OOO%%%%  -------",
"-------------------------------------  ==%%O@@OO@@O%%%%  -------",
"-----------------------------------  ==%%@@        OO%%%%  -----",
"-----------------------------------  ==%%O@        @O$%%%  -----",
"---------------------------------  ==%%OO  --------  %%$%  -----",
"---------------------------------  ==%%OO  --------  %%%%  -----",
"---------------------------------  %%OO  ------------  %%O@  ---",
"---------------------------------  %%OO  ------------  %%@@  ---",
"-------------------------------  %%OO  --------------  %%OO  ---",
"-------------------------------  %%@@  --------------  %%O@  ---",
"-------------------------------  %%O@  --------------  %%O@  ---",
"-------------------------------  %%@@  --------------  %%@@  ---",
"-------------------------------  %%OO  --------------  %%@@  ---",
"-------------------------------  %%@O  --------------  %%@@  ---",
"-------------------------------  %%@O  ------------  ==@O  -----",
"-------------------------------  %%OO  ------------  ==O@  -----",
"---------------------------------  %%OO  --------  ==%%OO  -----",
"---------------------------------  %%O@  --------  ==%%@@  -----",
"---------------------------------  %%%%%%        %%%%OO  -------",
"---------------------------------  %%%%%%        %%%%O@  -------",
"-------------------------------  %%O@%%%%%%%%%%%%O@O@  ---------",
"-------------------------------  %%O@%%%%%%%%%%%%O@@O  ---------",
"-----------------------------  ==%%OO    OO@@@O@O    -----------",
"-----------------------------  ==%%@O    @@OO@O@@    -----------",
"---------------------------  ==%%O@  ----        ---------------",
"---------------------------  =*%%O@  ----        ---------------",
"-------------------------  ==%%O@  -----------------------------",
"-------------------------  ==%%OO  -----------------------------",
"-----------------------  ==%%@O  -------------------------------",
"-----------------------  ==%%O@  -------------------------------",
"---------------------  ==%%OO  ---------------------------------",
"---------------------  ==%%OO  ---------------------------------",
"-------------------  ==%%@@  -----------------------------------",
"-------------------  ==%%@@  -----------------------------------",
"-----------------  ==%%O@  -------------------------------------",
"-----------------  ==%%O@  -------------------------------------",
"---------------  ==%%O@  ---------------------------------------",
"---------------  ==%%@@  ---------------------------------------",
"-------------  ==%%O@  -----------------------------------------",
"-------------  ==%%@O  -----------------------------------------",
"-----------  ==%%+@.oO@  ---------------------------------------",
"-----------  ==%%O@..O@  ---------------------------------------",
"---------  ==%%O@  OO%%%%  -------------------------------------",
"---------  =*%%O@  O@%%%%  -------------------------------------",
"-------  =*%%O@  --  %%OO  -------------------------------------",
"-------  ==%%OO  --  %%O@  -------------------------------------",
"-----  ==%%O@.oOO  --    ---------------------------------------",
"-----  ==%%@@.X+O  --    ---------------------------------------",
"---  %%%%@O.o+O%%%%  -------------------------------------------",
"---  %%%%O@.oOO%%%%  -------------------------------------------",
"---  @OOO  +@%%%%@@  -------------------------------------------",
"---  @@OO  @@%%%%@@  -------------------------------------------",
"-----    --  %%OO  ---------------------------------------------",
"-----    --  %%OO  ---------------------------------------------",
"-------------    -----------------------------------------------",
"-------------    -----------------------------------------------",
"----------------------------------------------------------------",
"----------------------------------------------------------------",
"----------------------------------------------------------------"
};
