/* XPM */
static char *_2ef3c606dfd42bdb78aa2f5b96da8ec[] = {
/* columns rows colors chars-per-pixel */
"64 64 14 1 ",
"  c #4D4A45",
". c #4D4A46",
"X c #4E4B46",
"o c #57534E",
"O c #57534F",
"+ c #58534F",
"@ c #58544F",
"# c #64615B",
"$ c #64615C",
"% c #65625C",
"& c #736F69",
"* c #736F6A",
"= c #746F6A",
"- c #74706A",
/* pixels */
"$#.#$$$$$#$$##$$#$#$$$$@..$$$$$$#$.#$###$$$#$$$$$#$#$$#$..##$$#$",
"$o..O$$##$$$##$#$#$#.@#ooo.$$$$$$#-..+o+#$$$$$#$#$$$#$##-..####$",
"$$+..oOO$+o.$$$#$$$#+.oo@@.$$$$$$$$-*..oo$#$#$$$#@$$##$##-=#$$$#",
"#$oo@..O@..$#$$$$$$#$......$####$$#$$*..o#$$$$$@@$$$$#-#$#*#$$$#",
"$@##$+..o.o$$$$$####$@.o+.$.$$$#$#$$$*..o$.$$$o@##$$$$*.=#*.$$$$",
"$$...ooooo..@oo$**#+oo.o##$#.#$$#$$o$$#...$$$$$$$$$$#$#-....##$#",
"$$#..oo$$o+@...........o$$-#.##$$$$+@#$..o#$$$$$$$##$#**-..o@#$$",
"$#$-.o$#$$$$oo..*******.$$$..#$$$$$oo$$o.o@$##$$$$#-==*-..@o+@$$",
"$$#-X$$#$$$$$#.#$$#$-***.$o.@$$##$@@o$$$@.@+o$$$$$$=......o$oOO$",
"$$#-.#$$##$#$.$###$$**#*.oo.@##$$$o@o$$#@..ooo$$##...$#...o$Oo@$",
"$$#-X####$$$$o$$$#$$*##*...+$##$$$ooo$*$Oo.ooooo..$$#$$o..o$$o$$",
"$$#-.##$#$#$$$##$#$*####o..+$$#$$$$o$**#$o@......$o*$#$$o.o$$$$$",
"$$--.$$$$$$#$$$$$$**#$$$o..o##$#$$#@$.-$O+o.o@..$##@**$$@.o$$$$$",
"$#=.#$$$$$$$##$$$$*o$$#$oo.O###$#$$$#-.$OO.O$$.O$##@o**$$o.+.$$$",
"#-=.$$$$$$#$$$$$o*@##$$$$+.o@#####$$*$..o.+O$$#O$$#oO**$$O..$$$$",
"-=..$$$$##$$$$+@o@@$$$$$$@...$$#$$$$##o...oo$$oo$$oo**-$$+..@o$$",
"...$$#$$$$#$$+o-o**$$$#$oO.***...$##o...o@oo$$$$##$$#$$oo.oo....",
".o..$$$$#$$@oo****#$$$$#o.*.$*-..........ooo+@##...$##+o.oooOO+.",
"ooo.$o$$#$oooo**-*#$$$$$o.***$$$#$#*-..**....+o.@o@.....++$$$$$$",
"ooo.$$o@oo+oo***##$$$#$$o.*##$$$$$###.*-****....o$$*...+O$$$$$$$",
"$@@.$$$$--****$##$#$$$$$+.=#$$$#$$$$.-###$$**.#.O$$**..oo#$$$o$#",
"#$+.$$#$$$###$$#$#$$$$#$@.*###$$$#$.@$##$$$#$-..+$*$-.ooo#$#@$$$",
"$$oo.#$####$$#$$$$#$$$$@@..#.#$$$$$@##$$###$$$.o$$$**..@O$$@@#$$",
"#$$oo.$$$#$$$$$$#$$$$$oo@...#$$##$+$$$$o$#$$$$$..o$*....OO$$#$$$",
"$#$$++..oo##$$$$$o.$$+OoO..$#$$#$$$#$@@##+$$#$#$....oo....o$$*$$",
"$$$$#+....@@oo$$o.$@oo@oo..$$$#$#$#####@@$$#$$$#.$$$$oo.OO.#*o$#",
"$.@$@..@......oo..o@ooo...$$$$$$$$$$#o+.$$$###$#$$$$$$@.o$$-oo$$",
"$#...$#$#o...Oo+...........$$$###$$@o..o@$#$$$#$$$$$$$.@.$$-$$$$",
"#$o..$$$##.@X##@@.$---...@##.#$$$$+@.o@.X@#$@$$#$$$$$$$@.$$$$#$#",
"#@o.$$#$##$$@.$$#$$##**.+@@.$$#$$#+..**#$X@@$$$##$##$#$@.$$$$$$$",
"$@.$$$$$$$$$.$$$$$#$#$-*...##$#$$$+.o$#$#$$##$$$$$$$$$##.###$$##",
"@$.#$$$$$#$$#$$$#$$#$$#-..##$$$$$$.$$$$$$$##$$$$#$#$$$$#..$#$$##",
"$$.$$$$$###$##$$#$$$$$$$..$$$$#$#$.#####$$$$$$#$$#$#$$#$..##$$$$",
"$#.o$$$$$$$$##$#$#$#$$$##X$$#$$$#$.#$$$$$#$$$$#$#$$$#$$@.##$####",
"$$$.o$$$$$$$$$$@$$$#$$###-X$$$$#$$..@#$$$$#$$$$$$$$@.o$o.$##$$##",
"#$$#.o+$$$$$@$$.$$#$$-$#$-.##$$$#$..@$$$$$$$$#=*$#o.+$@o.-##$$$$",
"$$$#*.oo@$o.$$$$@$#$$=.*-*.#$$$#$*@.@$#$$#$$$**+$#..@o@o.*##$#$$",
"$$$$#*..oo..OO$$###$$$$-*..$$#$$$*oo.-$$$#-**@OO.@$$..@..-$*.$$#",
"#$$##-**.@O...o$$##$#$*-*..##$$$$*oo...$$$**ooo+.+#$o.....=.@$$$",
"$$$$$***....Oo.o$#$$#*...o.##$$$$#*o.+.#$**OOo@O..oo..##...@$#$$",
"$$$$$#--..*##oO.$.#$-..#$o.$$$$#$$-@.o#.$=oooOo+*-..$$###@.Oo$$$",
"#$##$#*..**##..o..$...$$$$o$$$$$$$oo+@$#$-OOooOO*$$##$#$$#$.oo$$",
"$$$##**.#*$-.ooO...$#$$$$$o.$$#$$$O$@@$$$$*Ooo@.-$$$#$$##$$O.@$$",
"$$$$$.*.##-#$$$$..#$$$$$##o.$$$$$o$$$X$$$$$++oo.$$$$$$$$$oooo.$$",
"$$$$$...$$$$$$#+.-##$$$$$$@.$$#$$##$$$@$$$OOO+..$$$$$#$.@@$$o.$$",
"$#$$#-..@$$$$$o+=$$#$$$$$$+..#$$$$$$##$$$$o...$$$##$$$.o@$$$o.$$",
"$$#$$-..o$#$oO+.#####$#$#$#+..$$$$$$##$$#o.*-$$$$###$.o+##$$@.$$",
"$#$#$--..oo$...=$$$$$$$$###@@.$$$$#$$$$@..*$$$$$$$$##.+@$$$$$.$$",
"...ooo...**@o.*$#$$$$#.o$$#@oo...##@ooo.-.-$$#$$$##$#X@##$$##.$.",
".@o##@O.o$*$oo.#$#$$..o+$$$o.........o.$#-$#$$##$$$$$$@#$$#$$X..",
"$##$$$o@.o$$o.*$$#$#.@+##$$.*=-$$$$$$..#$##$$$#$$$$$$$#@$$#$$..$",
"$$$#$$#@..O..*$$$#$.@@####$.*=#$$$$$$..$#$$$$$$$#$$$#$#$$$$##.X$",
"$$$#$$$$#...*###$$#@@$$$$$#.-###$$$$$...$$$$.$#$$#$$$$#$$$##@.-$",
"$#$$#$$$##-.**$$$#$@#$$$$$#@.#$#$$$#$-#.#$$.@.$#$$$$#$$$#$$+.-$$",
"$$#$$$$$##*..*-##$####$$$$$@.##$$$$$$#$#.#..+$$#$$#$$$#$$#$..-$$",
"$$$$#-$$#*-.o..#$$#$####$$$@.#$$$$$$#$$#...o$$$#$$$$#$#$$$#..$$$",
"$$$$#*$#**.@ooo.#$#$$$#.$$$.X$$##$#@##$$...+####$$$$#$.o$$#.o#$$",
"$$$$$#***..#$$$....##..#$#.X$##$$$#.##$#.@+.@$#$$#.#$.o####..o$$",
"#$=.$$-**.+$##$.#.....##$..#$$$$$$$.@#$$.@@@...+#$#...o##$++.o$$",
"#$$*.*..oo##$##$$#$$--...--$$##$#$@.X#..$#$$###$....o@oo@@.+$oo$",
"$##X-.@o@$#$$$$$##$$$$==.-$$$$$$$#@...--$$$#$$$##-....@o@..$$$$$",
"$#$..@@$$$$$#$$$$$##$##=.-$$#$#$$#+..-##$$$$###$$-..**...o@$$$#$",
"#$#.##$#$$$$$$$$$$#$###$.$#$#$#$$$..-$$$##$$$$$#*.-=$**..o$$#$$$",
"$$.#$$$$$#$$$$$$$$$$$$##..$$$$$$$$.$$$$$$$$$$#$##*##$$$$..$$$#$$"
};
