/* XPM */
static char *_578849804535[] = {
/* columns rows colors chars-per-pixel */
"64 64 106 2 ",
"   c #1C130E",
".  c #251C15",
"X  c #271E19",
"o  c #291D19",
"O  c #2B221C",
"+  c #2F2621",
"@  c #312621",
"#  c #342B25",
"$  c #382D27",
"%  c #362D28",
"&  c #392E28",
"*  c #37302A",
"=  c #3C322C",
"-  c #3D3630",
";  c #41352E",
":  c #413631",
">  c #443B34",
",  c #4A3D35",
"<  c #463F3A",
"1  c #493F38",
"2  c #4A4037",
"3  c #47403A",
"4  c #4C433C",
"5  c #51463E",
"6  c #4E4741",
"7  c #4F4842",
"8  c #514740",
"9  c #554B44",
"0  c #594E45",
"q  c #594F48",
"w  c #5C5147",
"e  c #55504A",
"r  c #5D534B",
"t  c #5E5751",
"y  c #5F5952",
"u  c #61564D",
"i  c #62584F",
"p  c #615751",
"a  c #645B53",
"s  c #695E55",
"d  c #655F59",
"f  c #685F58",
"g  c #6B6156",
"h  c #676059",
"j  c #6C645B",
"k  c #72665D",
"l  c #73685E",
"z  c #6D6660",
"x  c #6E6862",
"c  c #706761",
"v  c #746B63",
"b  c #7A6E64",
"n  c #786F6A",
"m  c #777066",
"M  c #7A7167",
"N  c #767069",
"B  c #7D746B",
"V  c #7F796D",
"C  c #7C7771",
"Z  c #7E7A73",
"A  c #807466",
"S  c #82766B",
"D  c #88776D",
"F  c #82796E",
"G  c #897C6E",
"H  c #807770",
"J  c #847C73",
"K  c #897E73",
"L  c #837E78",
"P  c #887F78",
"I  c #858076",
"U  c #8B8176",
"Y  c #86837B",
"T  c #8C857C",
"R  c #8E887E",
"E  c #938476",
"W  c #998677",
"Q  c #92877C",
"!  c #988678",
"~  c #93897E",
"^  c #998B7D",
"/  c #9B907E",
"(  c #A0917E",
")  c #878681",
"_  c #8B8680",
"`  c #858881",
"'  c #8D8A82",
"]  c #8A8C89",
"[  c #908780",
"{  c #948C82",
"}  c #998E82",
"|  c #938E88",
" . c #969085",
".. c #9B9185",
"X. c #96928A",
"o. c #9C948A",
"O. c #9E988D",
"+. c #9C9793",
"@. c #9E9A91",
"#. c #A08E82",
"$. c #A19385",
"%. c #A1968A",
"&. c #A29A8D",
"*. c #A39D91",
"=. c #A39E98",
"-. c #AAA399",
/* pixels */
"= 6 : > > : ; : = O = < : - > > > - - > > ; - = - 0 g m = 5 5 O * 4 5 7 t y r 4 : > : , q 9 6 < > - % * + O X O 4 a 9 = = - , > ",
"P X.T F J K K U U q H _ P L Z Z Z ` I I I V V I R ~ R ~  .5 O l B j d r r r t g b B P } ..X.| { ' ' Y Y Z v h w o   - y j j B S ",
"{ ~ { { { { ~ Q ~ j { { { | | ' R ] R / / R R T T Y Y I R V 2 ' T R  .X.o...o.o.} { Q Q [ [ _ { ' R ' ' ' X.X.@.j # _ } { ' T R ",
"Y I T T T T T R K a { _ ' T _ ' R R R R Y T Y T T T T T T N 3 T Y I I Y U Y Y Y R Q U T _ ~ [ { T ' R ' T R T { B 3 { I Y T Y P ",
"Y T Y Y Y T T R B u ~ U _ _ _ _ R R R I R R R U T T Y Y R N 3 R Y T T Y Y Y Y Y T T T Q T T U ~ ) _ ) ' ' R T ' C 6 _ _ T _ Y Y ",
"T Y Y Y Y T T R B e ~ Y _ ' R R R R R / R R R R R T T U R m 4 | Y R T Y U T Y T Y Q T P P U Y _ ' ) T R _ T _ _ Z 6 _ _ Y _ ` T ",
"Y Y Y Y Y Y T R B r R Y R R R ~ R R W R R R W R R R Q Q  .l 5  .Y Y Y T Y Y Y T Y T T T U T Y _ ' ' ' T Y Y ) _ L 6 _ _ ) Y T Y ",
"R T Y R Y T T R B p { I T R R R R R R R R W R R R R R Q  .g e  .T ' T T T T Y Y Y Y T R T R R R ' _ R R ` Y ) Y L 6 Y Y Y _ ` Y ",
"T R T T U T Y { j & ' Y T R ~ R R R ~ R R W R W Q Q R Q { v 9 o.R ' R T T T T T T T [ _ R R T ~ { R R R T ` ` _ Y 6 T T T T R R ",
"~ R ~ Q ~ T R R d e C _ _ [ ~ ~ ~ R E ~ ~ ~ W R Q R Q Q ~ { 1 B  .T R R ~ [ Q [ ~ Q R ~ R ~ ~ T T ~ ' { ' ' ' ' _ 8 T _ ` ] ) ' ",
"R Q Q Q T { ~ v ' J a o.R ~ ^ ~ ~ ~ W ~ R R / / / ....} { o.4 : o. .} o.{ { [ { [ Q R T _ R ~ Y Y ~ R R ' R R R T y R R Q Q ~ R ",
"o...o.....K = s U _ 6 d { / ^ ../ / ~ ~ W / I l g k j j u 5 $ $ w p r s b H K T Q { { { { { { X. ...o.....o.o.o.o.s { } ^ ..O.o.",
"s i r 9 4 w r u u g r > 4 4 0 > 5 r r w 2 = i g s b S U K [ ~ T J H l r , > 1 4 8 q r r a j s 6 4 7 e q q u p r 3 + h J B N g h ",
"u p s b F } %.o. . .o...v l ^ ; i ^ E / b ; $...( ../ / #.{ { } } ..o.o...{ ~ Q K J U P P Y J r O 4 9 1 4 4 4 9 e a z h = # y r ",
"&.%.%...o.{ { ~ ~ ~ ~ R Q ..%.u j $.Q / U 2 ~ ~ / Q W ^ { { { { { { { { } { { { } P J [ { [ } T > ~ o. .o...o.o.o.o.o.=.v e -.O.",
"| } { [ T R R { ~ { ~ R Q ~ $.g g ..E ^ W 5 Q / ^ ^ Q / ! { [ ! { { { ..} { [ { ! { ~ K Q { ' J 7 Y ' { R { R ~ { { ] o.c 9 ..~ ",
"#.} } ! ! Q Q [ ~ ~ { ~ { ~ $.v s $.Q ^ ^ 0 Q / ! } ! { { { [ } { [ ! } } ^ } { ~ ~ { [ I H | Z w  .' ~ { ~ { { ~ ~ ~ } k 9 #.{ ",
"} } } } } } { Q { ~ ~ ~ { ~ ..b g ..! ! ^ h R ^ { ! { { { { { { } } { [ { { ~ ! Q ~ ~ ~ } j j x 9 { ~ ~ ~ { ~ { ~  .{ ..c 9 $.} ",
"Q } } } ! } ! { ~ { ~ ~ ~ { } S 5 U ~ ^ ^ r U  .[ { { { Q { { Q [ [ [ } ~ { ^ ~ ^ ~ { ~ { { u 8 0 { R { { ~ { ~ ~ {  ...v 8 } [ ",
"! } #.! ! ! { { { ~ { ~ { ~ } D v #.v k E a Q ~ { { { ! { ! [ { { ! { ! { { { ! ~ ^ ~ [ ~ ~ { H r ~ ~ { ~ { { { { {  .o.b 8 $.~ ",
"Q ! { #.#.^ { { ~ [ { { ~ { } K M ..^ M m b E / { } { { { ~ ~ { [ Q { ! ~ ~ ! { ^ ~ ~ ~ ~ { ~ { r R { R { { { ' { } { %.S 8 %.{ ",
"Q ! K W ! ! { { { ~ ~ { ~ ~  .B B / ~ ..U w Q ^ { { { { { { { Q { Q Q [ ~ ~ { ^ ~ ^ { ~ ~ { ~ Q 0 T { { ' { { { { | { o.c 8 o...",
"Q K W ! ! W ! { [ { ~ { { ~ } H B / ^ ~ ..g E / { } { } { { { { [ Q { Q Q ! { ! { ! ~ ~ { ~ { Y 6 { R { { { { { { | } } k 9 %.| ",
"E E K W K W Q { ~ { { ~ { [ { U S / ~ ^ ..r U / ! ! { ! { { ~ Q Q Q { Q Q ~ ~ { ~ ~ ~ ~ ~ ~ { I e { R { { { '  .{ } [ o.b 9 %.{ ",
"K Q K W ! ! { [ { { ~ ~ R ~ } C v ..~ ~ ..u U / ^ ^ ~ ~ ~ ~ R Q K } ~ Q Q Q ! { { { ~ ~ ~ ~ { T 0 R ' { { { { { { | } $.v 5 } Q ",
"E K W ^ ! ~ { [ { [ ~ { { [ } C j ..{ ~ ..r S / ! ^ ~ ~ ~ ~ ~ U K ! Q Q Q ~ Q { ~ { ~ ~ ~ ~ { } q T { R ~ { { R Q ~ ~ ..v 8 } K ",
"~ ! ! ! [ { ~ { [ ~ ~ R R ~ { H t  .~ ~ ..u l } ~ ^ ^ ~ Q ~ R ~ ! ! { Q { ! ~ ~ ~ { } { } } { P % r  .o... .Q ~ o...%.&.b , ^ E ",
"~ { } ! Q Q { { } } } { o...O.U g &... .&.a l %.Q ~ ^ / .. ...{ } } } { ~ ~ } } Q Y U J n 5 : = O   : x d 0 a j s u 9 8 @ , ..Q ",
"} } $.o.o.} } K B H H B k j j < = g j v v # , ~ ^ / / U l l l b k A A u u 9 : , b m v B V S F Q J = = g e 8 q e r a j S q $ J K ",
", 1 8 9 9 5 , 8 p = . - t s b v M j k f a i 5 5 4 > & > w k B Y K Q K Q Q ~ 5 @ .... .{ { } } ~ o.M s *.} o.o.o.o.$.$.$.K o > 1 ",
"K S v k k n K ~ o.M & { o.} X.o.} ..} ..$.( #.~ U B # A %.....^ } } } } ! } K 5 ^ ! Q ~ ~ ^ { ~ { U s { R ~ ~ R ~ W W } D > } ~ ",
"^ $.#.$.} ..{ W { K a ..R R ' ~ ' { ' ~ ! Q Q ~ ^ O.l A / ! ^ ~ } ! ! ~ } #.K w ..! ! ~ ^ ~ ~ ~ ^ U a  .R ~ ~ ~ ~ W ^ ^ Q > ~ { ",
"{ ! ! ~ Q ~ ~ ~ { J v { R  .~ ~ [ { { { [ ~ [ ~ ~  .M G { ^ ^ { { { { { ~ } A 0 } ! Q ~ ! { ~ ~ ~ Q r ^ ~ / R ~ ~ ~ {  .~ 2 U { ",
"{ { } ~ ~ T ~ R { I B  .R ~ R R [ { [ { ~ _ ~ ~ R } B J ^ ^ { ~ ~ ~ ^ ~ ~ } D 0 ( Q W ! ~ { ' { ~ } w I ~ ~ R R  .~ ~  . .2 K / ",
"| } } { Q Q R ~  .J m  .R R | R { ~ [ ~ _ ~ ~ R ~ { F F ..! ~ ^ ~ { ~ ~ ~ } i 5 } ~ Q ~ { { { { R ..9 m  .~ ~ ~ R ~ / ! ..5 S / ",
"{ { { { { [ ~ ~ { F N  .R  .R R [ R R ~ ' ~ R R R { V B  .~ ^ ~ ~ ! ~ { } K c 5 ~ E Q [ { { | { R o.r 9 O.R ~ ~ R R R Y ~ 5 A ..",
"{ { { { { { ~ R { B b | '  .R  .{ _ { R R ~ R R R { B b { ~ ~ ~ ~ ~ ~ ~ T [ U 9 { ~ ~ T { { { { Q ..l * T ~ R R ~ ~ ' Y ~ < v ..",
"[ { [ _ ~ ' Q U { B j X.R R R R R ~ _ ~ R R R R T ~ N j { T R T R R R R [ ~ T r ~ T U ~ { { _ { Q  .v 2 / R / ~ R R R I { : z { ",
"{ { { { } } { { } H s X.~ ~ / ~ ~ ~ { { R { { { { o.j j o.' R { R { ' ~ { [ T p U R R U R R _ [ ~ O.g = T ~ I R } {  .} I X h o.",
"> 4 e d d j j b H p = C V I Y Y U U U I T J V H B S 3 3 m B B C J H P J J K [ 9 P o.{ { [ [ ' {  .g @ O # 2 * O > - - 6 7 # - 4 ",
"t y y p a y h h l j j j j j e 5 t t u t % 9 M B B v v x N N B b x x b N B v t > 9 j c v c c v N 2 g I Y I F N x j O e B J _ L h ",
"{ ' { { ' { ' { R R | |  . ./ ~ ~  .Q O.4 g O.R { { { { { { ~ { { { { { { ~ R T B j v j v v b y - I / ~ { {  .{ o.3 V  .` I _ { ",
"T I Y Y I I T T T T T T R Y T U T R R O.r u ..T R R Y R R R T R ~ T R R R ~ ~ R {  .} { { { ' X.j B ~ R ~ R R _ R > V { Y Y Y Y ",
"T R R Y T T T T T R T I R I I I B N M B 2 j ..R [ ~ [ R ~ R R R R R ~ ~ ~ R ~ R ~ R R ' R R R _ h V { R ~ ~ R { Y = T R ' Y T _ ",
"R ~ Q ~ ' ~ R U T R R R R ~ ~ { ~ ~ Y R y a  .R ~ _ ~ ~ { [ [ T R ~ T [ ~ ~ ~ ~ R ~ R ~ R ~ T | y V ~ R R ' R { I > R { ' ' ] R ",
"~ [ [ ~ ~ R R R | R R R R R R R ~ ~ ~  .v p ..Q [ ~ ~ R ~ ~ [ ~ ~ T R ~ ~ [ R R ~ R { ~ [ R R | h V  .~ ' R R { V > { R R Q ~ R ",
"[ ~ { ~ Q ~ ~ _ R R ~ R ~ R R ~ ~ R R  .M r ..Q R ~ R ~ ~ ~ ~ R ~ ~ { ~ ~ { ~ ~ R R { ~ R R ~ } g I  .R { ' ~ { B 3 { R ~ ~ { { ",
"^ } ~ } ^ } { {  .R R ~ R  .{ ~ R { R  .V 0 / R ~ { ~ ~ R R ~ ~ [ { } [ { { ~ R ~ R ~ R ~ { T } l I  .~ ~ ~ ~  .B 3 } ~ {  .{ { ",
"{ { { { } { ^ ^ } ~ R ~ R R ~ ~ R ~ ~  .I 9 { ^ { { { R [ { Q ~ { [ { { { ~ ~ ~ ~ { { { R R { @.w y / R o.o.o.@.J 6 { { ] | } { ",
"} { { { { { } } { ~ ~ R ~ R R R ~ ~ ~ ~ ~ w T { { { { { { { { Q [ [ { { ~ { { { ~ U Y } } { R p O 5 r r r p j j 0 > o.{ | | | } ",
"o.o.} _ ~ _ ' _ R Q ~ R R R ~ ~ ~ ~ ~ ! ..g R ~ R {  .....} } } o...&.o.} { ~ R J N j 4 4 8 > 8 Y  .R T J % - j 0 # L @.o.o.o.o.",
"P ! } o.{ ^ { } } {  . ./  . . .{ } { ~ G % 2 w 9 , - : 5 p p p s f r r q q r u r r r r v H Y ] R ~ ~ ~ O.4 b O.O.B 8 q i k n S ",
"1 ; ; , w w 0 0 0 0 0 5 0 w r r u r r 0 4 4 B ~ ~ U p @ n Q Q P K K K K Q T ~ } ^ } ....{ { [ ` R R ~ R / 3 B / Q | { v u 9 5 , ",
"} D . A K D D S S F V B V V V V J Y T ~ { ..o.{ } { } k { { { } #.} } } } } ^ { ! ! ~ R Q ~ [ { ~ R R R R 2 I / { { } ..} ....} ",
"#.S 9 %.#.#.! #.W / /  . . . .~ { } } { { { { } { ~ { f P { Q [ Q Q { Q ~ ! ^ ~ ~ Q Q ~ ~ Q ~ [ R R ~ | R 3 Y  .} { { { { { [ { ",
"} A u #.! ! W ! W W W R R ~ R ~ { { { { { { { { { ~ } s Q { ~ ~ Q { Q ~ ~ ~ ~ ! ~ Q ~ ~ [ ~ ~ R R R  . .T 2 ~ ~ { { { } } } o.} ",
"! b i ( ! ! ! ~ ! ^ R R { R R { { { { { { { ~ { { { } c P } ~ ~ { { [ ~ Q Q ~ ~ ~ ! ~ ~ Q Q { ~ ) ' { X.J 3 | { | } } } { ..| | ",
"^ A k ^ E ! ! ! W W ^ R ] ] ` { { { X.{ { { { { ~ { { s Q { { { [ Q Q Q { Q Q Q ! Q ~ ~ ~ [ [ _ ] ` ' o.B 4 o.} | { | } } } } } ",
"~ b l W E W ! ! W ^ ! ~ | ' ] ' { | } { { { ~ ^ { Q } r Q { ~ ~ Q ~ ~ { Q ~ Q ! Q W W W ! ~ ~ ~ ' ] ) o.v 9 O.{ ..{ } ..} } | } ",
"! l l ! ! ^ ! ! W W ! R R ' ] ] ] { } { { { { ~ [ ~ { u K ~ Q Q Q Q Q Q Q ! ~ ~ ~ ! ! W ! ! ~ ~ ' ] ` +.j e O.{ { | } { { } ~ { ",
"^ s l ( ! ^ ~ ~ ~ W ! R R R ' | { { { } } { { ! ! { ! q K Q Q ~ Q Q Q Q Q ~ ! ~ ~ ~ { ~ ~ ! R { ' { ' o.p u %.^ ! } } ! { } K ! ",
"} u b ( ~ ^ { R ~ ~ R | ~ | | R ' { ^ { ~ ! ~ { { { Q , K ! E ! ! ~ ! ~ ! { ! ! ^ ~ ~ ~ ~ ~ R R { ' ' X.0 k ..~ } ~ { { { K Q Q ",
"#.5 A ( Q { { ~ / ~ R ~ R X.R  .| { { { { ^ ~ { } ..{ : K Q E Q } ~ ! } { { { { ~ ~ ~ { { { ~ { ' ' ' @.6 f o.{ ~ ~ { { { ~ Q K ",
"~ & D } ^ ~ ~ { ~ R R | R ' ' R ' { ' { { { { { Q S s & Q ~ ~ ~ } ^ { } ! } ! } } ~ ~ J J J U R ' ]  .I @ < ' { ~ { { } ! ~ { } "
};
