/* XPM */
static char *eda264268c7e408e9596fb259caa2f2d[] = {
/* columns rows colors chars-per-pixel */
"64 64 70 1 ",
"  c #060502",
". c #0A0706",
"X c #0A0907",
"o c #0D0C0B",
"O c #100F0D",
"+ c #12110E",
"@ c #110F10",
"# c #151413",
"$ c #181615",
"% c #1A1916",
"& c #151618",
"* c #1A1718",
"= c #17181A",
"- c #1D1C1B",
"; c #211F1C",
": c #22211E",
"> c #1E1E20",
", c #211F20",
"< c #1F2022",
"1 c #242422",
"2 c #292624",
"3 c #262827",
"4 c #2A2926",
"5 c #262628",
"6 c #292728",
"7 c #27282A",
"8 c #2D2C2B",
"9 c #302A27",
"0 c #312E2C",
"q c #2F302B",
"w c #33312E",
"e c #39342F",
"r c #2E2F31",
"t c #312F31",
"y c #353433",
"u c #393633",
"i c #373936",
"p c #3B3936",
"a c #363639",
"s c #393738",
"d c #3C3C3B",
"f c #403B37",
"g c #413E3B",
"h c #3E413D",
"j c #42413E",
"k c #48433F",
"l c #3E3E41",
"z c #413F40",
"x c #3F4042",
"c c #444442",
"v c #494643",
"b c #474946",
"n c #4A4946",
"m c #464648",
"M c #47484A",
"N c #4C4B4A",
"B c #514E4D",
"V c #4E514D",
"C c #51514E",
"Z c #4D4D50",
"A c #535353",
"S c #585755",
"D c #565855",
"F c #5A5956",
"G c #575759",
"H c #595658",
"J c #5B5A5B",
"K c #5F5F61",
"L c #656461",
"P c #686765",
/* pixels */
"uddddhdpd4#yjuriuaiaiuadadc-8wppwdpppidffgu:%:uppuiipfeek9+9feuu",
"pdddddgpp4+wviaddddldxhdxhd-8yddvbjjbCnffgu1%%4jdddgfjfuv0O2eepp",
"dhvdpdddi8$wwcaddxaddxxxdd8-3:pjcdjnvjCNjfg1$#4Ddjvhvvkkg0+:wdgd",
"njvpuCwyy4-iwMdrhxrVmccdd8p%4bpd8ddddjjkkpe1%%jjvmnjv9Cjj9$fwpjv",
"n44q34884w$dpy88qhbhcxca7dy#;di8wdihdjpyp84:o-yHn8ypwwhn8w#je;hn",
":88wyy848i$yqcypqyNd3qly8r8o1qq8q831382;::--X-$11-:-;8w82:+;1;;1",
"%-wq4q40y2+44w1q;;;=$$<3471+;:1;:;###$+$#++#OOO##+%-;;314o+%#--=",
"#+#%%%&--O+-%-%&#%oo o@#=-$+++$+o+Xo;3qiudpsO10841-+#wiw88;-#+OO",
"#o%&---,::$#;1;;@8iihpuyu#&:31:148:%dy0swtdu,0zgp2q+qAvnvnchpppi",
":+0408004w42000e$vVbiwhdb--8444434;+att7uyyu;e90ww:+vdw8Lwy8yhph",
"4#018806yw;4906e&wpiuqaim-:q8q88qr;oayuussaa;09fwe4+-8ipuydwwwww",
"14y0800twp:20t9s%qiiddddp-4yyyyuyu<oysldzdzl2,vgpe4O:yyyyipdqwi2",
":4wwttusf2*effs6-djncdhhV18qwyydyd;odcdddsyc,6ugffeo1wppdjjhphe8",
"-4yyttstz9*tsset%Njdpddcv;8dwsdduj3@ru:706gw-,pupfw+hyiivdjhjdjq",
"#yq8a,t9,t@,;;;;#1Viqcvhi%3-31--31-X-;1;--;1o1jpww:+<3q2142hpiw:",
"o%#%,*****.@oO#$+-11;#%+$###o##oo=74w84;1;3%##%$+#+X+-$--%$-%O#+",
":::%%&#o&#<338d-ry7o1rhcAmwbvdc&@lAFFDMgnCSbp-.$;4q3q3;#+ XX%884",
"gvfppp8-caadudrduid#aNy8ytpywyl-#60ttyyyyypib:1dnkhVNDVVqq%kkVBv",
"ppfpddw;4caaadddady#auyyuaydyys,@6zysssspjpww81dhhVhhhbhh4-nwipp",
"pdpgdp8:uhdddxxdxhr#7aauluppdpc8@tHasgdpppydv:2jhhcdhhbhb4%kpppp",
"hmmxjdd:jcMccxcbxda#uclddzdjddg1@,ZzcuABipypj::hhbhcbbbbj4-kfpjp",
"dcccvyp2-dbcddaiqr11rmsmadjcjjsyo,ztNsddhydph::eqbcihxbjjw:4pjjj",
"suyaw84:8dayaa7rau1;8p14udjvcdN8O$6Npy14ii%28-:pyqqywqyie::8u94u",
"*-$--;--$<#=1-=3ud4---$4:41:21::o1;-:--%--;#+++-$-%$=;<3::#;--&#",
">*oooo$%$#oo@@@o@@;-#OOXoO#+#OO+#O+O+#%%-:;:11::#o#>>>>@%o*-*,5>",
"AA6*dvcvhhlddua8#dVbppcgpcg1%:-:;;%o%4-::1488www2#;llllMbNZZNAKG",
"dH8&Cpippdddmvc0+auaazdsscNp#134441o;143888eweej8#>alllxJMlxllld",
"lMt#dpdjDjhddpg0&1aussasspp8%308w0w&3j8esusgjjjf6->aallAchdalalc",
"lMa@phwddjjjhjcy-4dssslsddcw&4ywwyy:%vyyscdpzfgNg;,7Zcmclllllcll",
"cnu#uyyhcvjddjdy28lctdzdtld8o0pyyyd8.4wdixdgafgg0;7Zllllldlcarrl",
"d83#3yw4py888us886y7ccllcsdyorudipddo<Vhsudfsugn8-6mldczddyayaaa",
"3;%o--:-8w841136->1-,1atymlr#dci9hxd--myyd8szzc04#0ycycaaayallar",
"=&@&&&@@&$%$O#$;++O+#1qyy7r4#3we84v8-%-=->>6-*y7,@--1w1-acu5a%>1",
"&=<<<<==;Oo19fefeepfw o+@&#@Xo+&##o&<73<&&O&&@*-@OOX&-&%-%-&&&oo",
"78rr87r7r:+gfvggeeefj;X%<34rr78y8+9cHANdMmmmzay,$;6;%;%;-*#oo#11",
"aaraaaara4#e90feuee9j:+4ddddpdscd&yGraadrrcZZHK7%6212229483-=5rr",
"xxxaaxxlx8&9ee0eee0fe:+4Ndyppdssc*5ZdaadalaZllN3-98899uu0ed-&7Mm",
"MxMxxaMxxr-4geeeufffk:%:jwdjgjday*3llaxMlxlmadl8%dwipdpfggM<@7Al",
"rxZMrZxMMu%8eueffefeke-8jcjjzgdcy-5clmlmcMlalalr-mydjgkfjk41@1lr",
"<<<<r7yxr9%8uef2enffj:%4Ndcw0pzMa*7ZaalrralMcAMr%d9jp2nNyj03o=51",
"&===<><r3%%:4pew9929:2+:4w3vy;zat-,>87-<ylacd8>&+q421::#;4y-+:=%",
"<&oo###=%$oo#+$#$++#;++##+#%##@o@@@#::####&&---###$+OXO++#&+:-<1",
"7q&%%$&#++%;%%$##+#+O4e0diiuyyddt-@@oXooo XX#:14488822:+oo$4yyyq",
"iq#;:::1%obJyvpDkkgnOgpNcMddNxyis8*tefeey3%rPdyjjhjjcbp8#2jwyyau",
"pe$:999w4$wypyyjcyp4Oty5ayuayadis7-086999w::jjyddddvjddy#4jdddip",
"pw$8ewewp+9pyyipdud4O0yu8aaaaddac8,yw00e9w:%ddb8hjjbdjnp%1njjjjd",
"cy$4ffpup+wpdppdiiwy%ryaaidhdaddz81yfe0uwe;#whdnNnnnNnDy-8cncvmj",
"Mq+jjjgf1owvhddddu8w-ddccxddcmdyy74yuffepp1+4pyjnnBVCjgw:1Vnnjdj",
"Ny+whjdn8oqyivdppjw11pwvmy:ypd:wp::8q9:;fe:O1upydyyyasy8;,wn84Mv",
"w4o-+$:#; $#:-:q:2:%+%#;::4---$-:#$$::;;$%$o-$$:4,,616tt-;014194",
";;o+#++++.++XOoo++X+o+++oXo+ o+O..oOOO&#$2::+++o@@@**-38OOO###%-",
"+$:4489944dpyyy-oX4:2w8::+-pvnjjvhgs;1mjkfpjCbjdtt6-oo#$@oooXo++",
"#3yjqjg0enfwpevf::f9490wq;:kffeeupup:2cCfCNFChhdcdij31$meeu0e42:",
"$;1wwueeffuppjk:4;eeweew9$2f99fffpff41hiejipiiddddcp4:dy0000wwe:",
"%;;pppfpeuffBkf4;%jeeeee9%22kfffffkgy-yiphjjvcjddcdd4-jqe0eueef:",
"%%3ppffjfffkfjfe;$fpfppe2;2kffffgpvgy%1DicbjbNhcmvddw-jpufgfgef0",
"%:gBkgpjvpcBNjj4;+fe9feje-3nwyjjggjj8-wjhnndvvbdihpi0%Nf9fgffef0",
":$8;p0Fnsgdp8Nn1+$:fe:qe2:44njj9pgjv-%3vvbCnqd3chcy9;%9penngekue",
";&222z4e2:ug84c:+$peke09e:%d4:311::1o$4py84q33ybcyp:%%21994u:90e",
"#XO;;;::;--1:;:$oX;2:;$$-%+oooooO@@#+++%&$#$-#%;<;:;+O++%%;+;+;;",
"449qq492.Ooooo+.oo%%$$->:i%O18wduyyw8;2::%o XXo+%%:#-%#$XXXX$:99",
"jjBnnkkC2OO1yydbbxMNNbbchji#wpdJhnnbyndpi88:$#8yqi84qq9::%X:efej",
"qwnkk44nh:%yiNw88ra8ha8yqyj$yjCjpmhp3chjnjjq$qcwyjipeepkhe+ejjqw",
"whepppheF:#wNqywqya8aqayrwV%4ydpdsdpppdpddp3%1jpypyiwewwVq#wkwwe"
};
