/* XPM */
static char *_931e5ebde1d4d3dda75395c963d063e[] = {
/* columns rows colors chars-per-pixel */
"64 64 66 1 ",
"  c #1A1F22",
". c #1E2223",
"X c #232626",
"o c #202528",
"O c #262C2E",
"+ c #2A2E2D",
"@ c #2D312E",
"# c #30322D",
"$ c #2B2E32",
"% c #2E3233",
"& c #2E343A",
"* c #323534",
"= c #353836",
"- c #393C37",
"; c #333639",
": c #363A3A",
"> c #3A3D3C",
", c #3D413E",
"< c #41443E",
"1 c #373B40",
"2 c #3B3E40",
"3 c #3E4242",
"4 c #434544",
"5 c #464945",
"6 c #494C46",
"7 c #434648",
"8 c #464A49",
"9 c #4A4D4B",
"0 c #495045",
"q c #4D514C",
"w c #51544E",
"e c #52584E",
"r c #4C4F51",
"t c #4E5251",
"y c #4F5458",
"u c #535553",
"i c #555954",
"p c #595C55",
"a c #535758",
"s c #565A59",
"d c #5A5E5B",
"f c #605F5B",
"g c #5D6156",
"h c #5D615C",
"j c #61635D",
"k c #62695E",
"l c #5B5E60",
"z c #5E6261",
"x c #636662",
"c c #686763",
"v c #656963",
"b c #696B65",
"n c #636769",
"m c #666A69",
"M c #6B6D6A",
"N c #6D716C",
"B c #70716B",
"V c #6A6E71",
"C c #6D7371",
"Z c #717471",
"A c #757A74",
"S c #717878",
"D c #7A7E7A",
"F c #7F8384",
"G c #868884",
"H c #A3AAAA",
/* pixels */
"5>w6w=#==9www<<w<<<<<6478r8r9rr4f$X8rBpfa696qq555;7ypsaruu>>2r44",
"4<<6<#w69ww00w66w<w<9699r89rr49r9r.aruraquuuuqueu5iauuawaawruwas",
"6<6-<wwwwwpwwww66w6<f669989969raraX49w9rwuuwqqquu4aauuuwffrwu9rf",
"<-p<wwq06wwwwwwp666-r969r999urraaa$469w9w9w6qqquw<airfuur9ruufua",
"#>0wwqqqewppppw06wq>8r9u9rr9r9aasa:39uq9r9qqq99u9>aaauiarrdafuur",
"=56we<wepwwpepwpiww-4u8r9rr9rraayy3ea9qq6869wr9uu>uuawuuruaffurw",
"=ww6wwpewppwppwpiuf44aysururrruays33835864666q8ww:urrruw9ufduwir",
"5*qw0eefwpwwwwwpifw>;uldfrra9uurrs73tetir6666qquu4u9q9uurucrfuu9",
"955qwwpewepeweewifi<2dyyduuuuwawtu839upaauwu555992fruuarwurfruu9",
"966wwwwwpewewwwpupB-:84ffsuuuurrry97rryuuwtqu8qqf>rfuwwuuuuauarr",
"896-weuuewwwewcpfcf#2889auuarru9aar79rwwutqtu9wur*uuawauaarurfrw",
"$694-<wiwewewwwfc>>**86rruxuuususr7769rwqqstt9wur#4uaaprffcauwrw",
"=966w<-<ww9www6<>uf4>649afaauwruar2486r9qtuqt8u9r#9rfpspallaufau",
"4666<<,fw<u9<-=$26u699rraar9rrrus82669999taq66999#r9rrrrflfuuuua",
"46666666ww6-4%$><ww4urrrrw9ruarsaf266rr996999999f;94rpyxllaaaufa",
"#06www66w<9p>x#46uc4>26wrr6w9ur;42;r649995989qu6c249,urlxffcufac",
"$66ww9666w6f-6;>44#4c4ff33iyh334>M;>82944964f%4f;$9rq7yhzlzzVyy5",
"$,><<<<-#X-#-#-##=r#2;443,,&,3==*>#fffpf4rr#94rZ1;ddhjpeshNCSDAC",
"wfi-pfwucwwffwBw>#4f#<42h,0egeegufcr44444<>4444642jxjgpphgghvvkg",
"-wwfwpwwfwwwwwwww>fwwfuf0hgggessw9fr49446<44444469bdjpejggshkvhg",
"#ww9wwwwf6wwwwww9>ipppwwyesiiiiiuf9649649646446943wphjkpggghhhhk",
"#w9wwwwpww6w6www6-wifwwuseiggigsfu-644496684444943hpgpppuehhkhkh",
"=9wwwwpwwfwwfw4w6*6fiiiwsshsiieeuf=r4646r994464665rwwpj6ggghvhhe",
"#wwwfpfwwwwfwwwf5#-wiwiuhhhgggsgwc#24449rru8464645jgppkggeghhhgi",
">wwwwwffffww99ww8%-ppqethhhhseeifD*>;58t9a4444666-pepgphgdghkjkj",
"=999wwfw<www6w964#-ipittihzzkkgsd+%=:4>54<4rrr>rf,peppjppphpjjvN",
"6w996wwfwwwwwww66*#uuhgesshighigw**-4444669ru444:,pipgpghhhpheh<",
"4ww6www9fwww9ww94*=fgweiieigiisgp>%-58w9rr6>6467*,ppppppggphge,h",
"6996ww9w6w9wwffcw#-=wwefkggsiiihi8,rru9r9w6645dr,6iieghghhgghegh",
"fwwwwfwwwwwfw9fBp;=9ppiiiiegghigax=6qrrwr99849uur*fiighhpjghgpvv",
"f9fww9wfffffww99m,4cd,<ieeiiss3efi>rr89ar999r69w86pepugigbhhqigh",
"www9wwwfffffGwwfr*,ccjw-gggihgvie=,r9699898996rw94kipgppvgh0eghz",
"afcf42cfu85<99a2=h:9Dbjie%vsiq55<53ue9,he00y0s0yC@Skggshzhi0hmDk",
"$;742;24288->-;:%+-,+,+:7,,7355,-*:;=ODzy031& &&&&0&3:333%33,,33",
"rfclar22>9r,2;;%,qp6wwrw99:3732;sz9u@ztz&Cz&y0&30S3030q330t30qy0",
"afcaf44r868r8>;;5qwwwwii997,873>9uudqeseey00eeee3k300q3009ttt0qq",
"rfnr>4444r96r21=5qqwwpujhuta899;3seiteeegees:eey033e3y3e300t30r3",
"fu4a444rr444rr4*-qwwwppphgpsww5;0hsiyeytesye3e0e3303e30et3r0t03q",
"fr99444r4r448242+qwuwupjdphwuuq>3kieeegisseyesss3330e3e3qtt090q0",
"4rr444444449r752>fqewuppjd9w9uq43iiessiiees000003,e33e3y0qy30q33",
"2ur444444447474449wqwipppfwiwww93seey0sskhyes0yy,33e,t303qet3330",
"49444444464644244wwwwppppprwwp5<3hs30zkzzzme03ee3Ose33ii393qi03,",
"r44444444>4424119ppiwpuffppuwwwa3shikkkzsksee7eee3e33ht3,00t90ey",
"94r444444=2484;25pjuwwwdfjauwiff3hissszhykyee&eei3h33,y@;3t3390e",
"644444944-843r3,,vxcdwpjfcwweiid3kszkkhheee0ey&0e&33,k3qq3tysyq0",
"4644494424388y335zvgfuujjwwwiadh,Ceeyyeheyye00s&33e300tt03eqt3s3",
"44444r4>*>38ttz;qeckxjwwrwwuffhh3Ceesgsihe0e1ky03O3e3s0iyi,eq3e0",
"2frrr44$>2>98sq3N9DBbkuwr6659fz3&,ekgshehe0&zy07,&3&yqyyts3hyly3",
"#2>;;;#$$;;;11&$,;48794=*=%;434%l3zt333q5&O:*::&O3OO,OO,&,,33ee3",
"4furua449r9994;14farraya8544;>%@yz33837ytyzn:3s7&3O,3ey333Oeete3",
"frrrrr24rafal7H;<fiiar9fMcdsxp1szzzzhzszszzsz:zu33O333e30ehe3ye3",
"rrfrrr4rfraflflrweffpuffffffxd2nzzszhshdhznnzsasl333hh3g003eee0i",
"rruf4rrfayddlcl7pffjjjbjffpcbj4szzzziztdalzMx943z333ii3g03eeeee0",
"ur9rffarpayyaua7fjjjjbbjxfjbjc4slzzzssyshizyu9MC313e3e3g0e333se3",
"49uuffaaaxllaaa7bjjcBbjccbccbb4uhtzzzzlhddzsajZMl.33ek0ie3303ee3",
"9rufffflddflfaa2jjjbbbjfjxjcbB4dytszznssszdduxxxs,3y03te3ee3ge3e",
"shhzhddsdlzzzau>jjBBjjfBcMcfad3risaxhndstldzcxhbk,3s00t0e00i0q30",
"unzsldysalzzlau;jjbbcjjfccBwau480ayiuuddtxdmxdccz&,3qe30i03eitt0",
"shzhzzspasldsr2*9fbccbjbcBfawr778zyu9iu8dlhdcxau3&,3y00y3t0si03e",
"aplxmzttppsry72;epjcjjbbcfMw693rhaisps9mCdlldusr3&,qq00i0030tii0",
"uuautttttuyizsx;ifjcxccbciccZ9>rlxxslawuldzzaat8:FOqe3e3t03eetie",
"u9asatyistaslza:fjfffxfjfxbfx937cxcxxurpxdlziMug,3,y3e0eigieq0e3",
"autsaissduyzzzz&kjjjjccffccbar22zxxxl9rddldruasa3$t,,s00eetyiee0",
"s9usssudzaCzzzt*jfjfhcbfjbfcdm$&8slcZludhsttutay13003es33qtq0t0y"
};
