/* XPM */
static char *_c0cf7c06064457d961a60b9bac084ba[] = {
/* columns rows colors chars-per-pixel */
"64 64 177 2 ",
"   c None",
".  c gray20",
"X  c #353535",
"o  c #373737",
"O  c gray22",
"+  c #393939",
"@  c #3A3A3A",
"#  c gray23",
"$  c #3C3C3C",
"%  c #3E3E3E",
"&  c #3F3F3F",
"*  c gray25",
"=  c #414141",
"-  c gray26",
";  c #434343",
":  c #444444",
">  c gray27",
",  c #464646",
"<  c gray28",
"1  c #484848",
"2  c #494949",
"3  c gray29",
"4  c #4B4B4B",
"5  c #4C4C4C",
"6  c gray30",
"7  c #4E4E4E",
"8  c gray31",
"9  c #505050",
"0  c #515151",
"q  c gray32",
"w  c #535353",
"e  c gray33",
"r  c #555555",
"t  c #565656",
"y  c gray34",
"u  c #585858",
"i  c gray35",
"p  c #5A5A5A",
"a  c #5B5B5B",
"s  c gray36",
"d  c #5D5D5D",
"f  c gray37",
"g  c #5F5F5F",
"h  c #606060",
"j  c gray38",
"k  c #626262",
"l  c gray39",
"z  c #646464",
"x  c #656565",
"c  c gray40",
"v  c #676767",
"b  c #686868",
"n  c DimGray",
"m  c #6A6A6A",
"M  c gray42",
"N  c #6C6C6C",
"B  c #6D6D6D",
"V  c gray43",
"C  c #6F6F6F",
"Z  c gray44",
"A  c #717171",
"S  c #727272",
"D  c gray45",
"F  c #747474",
"G  c gray46",
"H  c #767676",
"J  c #777777",
"K  c gray47",
"L  c #797979",
"P  c gray48",
"I  c #7B7B7B",
"U  c #7C7C7C",
"Y  c gray49",
"T  c #7E7E7E",
"R  c gray50",
"E  c #808080",
"W  c #818181",
"Q  c gray51",
"!  c #838383",
"~  c #848484",
"^  c gray52",
"/  c #868686",
"(  c gray53",
")  c #888888",
"_  c #898989",
"`  c gray54",
"'  c #8B8B8B",
"]  c gray55",
"[  c #8D8D8D",
"{  c #8E8E8E",
"}  c gray56",
"|  c #909090",
" . c gray57",
".. c #929292",
"X. c #939393",
"o. c gray58",
"O. c #959595",
"+. c gray59",
"@. c #979797",
"#. c #989898",
"$. c gray60",
"%. c #9A9A9A",
"&. c #9B9B9B",
"*. c gray61",
"=. c #9D9D9D",
"-. c gray62",
";. c #9F9F9F",
":. c #A0A0A0",
">. c gray63",
",. c #A2A2A2",
"<. c gray64",
"1. c #A4A4A4",
"2. c #A5A5A5",
"3. c gray65",
"4. c #A7A7A7",
"5. c gray66",
"6. c #A9A9A9",
"7. c #AAAAAA",
"8. c gray67",
"9. c #ACACAC",
"0. c gray68",
"q. c #AEAEAE",
"w. c #AFAFAF",
"e. c gray69",
"r. c #B1B1B1",
"t. c #B2B2B2",
"y. c gray70",
"u. c #B4B4B4",
"i. c gray71",
"p. c #B6B6B6",
"a. c #B7B7B7",
"s. c gray72",
"d. c #B9B9B9",
"f. c gray73",
"g. c #BBBBBB",
"h. c #BCBCBC",
"j. c gray74",
"k. c gray",
"l. c gray75",
"z. c #C0C0C0",
"x. c #C1C1C1",
"c. c gray76",
"v. c #C3C3C3",
"b. c gray77",
"n. c #C5C5C5",
"m. c #C6C6C6",
"M. c gray78",
"N. c #C8C8C8",
"B. c gray79",
"V. c #CACACA",
"C. c #CBCBCB",
"Z. c gray80",
"A. c #CDCDCD",
"S. c #CECECE",
"D. c gray81",
"F. c #D0D0D0",
"G. c gray82",
"H. c #D2D2D2",
"J. c LightGray",
"K. c gray83",
"L. c #D5D5D5",
"P. c #D7D7D7",
"I. c #D8D8D8",
"U. c gray85",
"Y. c #DADADA",
"T. c #DDDDDD",
"R. c gray87",
"E. c #E1E1E1",
"W. c #E2E2E2",
"Q. c gray89",
"!. c #E4E4E4",
"~. c gray90",
"^. c #E7E7E7",
"/. c gray91",
"(. c #E9E9E9",
"). c gray93",
"_. c #F3F3F3",
/* pixels */
"                                                                                                                                ",
"                                                  | ` ^ W Y Y W ^ | | ` W F                                                     ",
"                                            >.>.O.{ ` W W Y Y Y Y Y ` { ` ^ L A N M                                             ",
"                                      O.-.>.>.$.{ ^ W Y L F A M x k M L W ^ Y Y A M x x g                                       ",
"                                  | O.O.| { ` Y Y L F A A M M x x x M L W ^ W ^ W A M M k g g                                   ",
"                                ` { ^ L F A x N N N A A A L Y F F F A L Y L L L Y Y F A N M M k                                 ",
"                            { ^ Y F N M N A F Y L L L F L W ^ ^ ^ L F Y Y L L L Y W Y L L L L M g 9                             ",
"                          ` W F N x M F L L W | $.{ ^ W ^ { | | ` L F L L Y N N Y ^ ^ ^ W Y W Y x g p                           ",
"                        ^ L A A A A Y W A N L ^ | | O.| | O.O.| ` L A N N F N x A Y ` | ` ^ ^ ^ F M x g                         ",
"                    Y Y A M F Y L A x A M M M N Y { | O.$.>.O.{ ` W L A x M L F F ^ | O.$.O.{ ^ Y A A x p                       ",
"                  L F M N L Y Y N x g x x M x M A Y ^ { O.>.` M M N A M k k Y ` ^ | $.$.-.O.$.` Y F F M k p                     ",
"                  A x A W W A N p t g g k k x N L Y L W | $.A g g k g g k p k F ^ O.>.>.O.| ` W Y L N p g p t                   ",
"                k p g Y Y M g t 8 9 p g k k x A L Y Y F W ` N p g p t g k t 9 t M { 2.2.$.O.W Y Y L k 9 4 4 8 9                 ",
"              p t g A W M t t 8 9 t p g x k x N F Y ^ L L Y M g g p p g k p t 9 g L { | ` | ` ^ ` Y g 9 < - % 9 4               ",
"            9 p p N L Y x 8 8 8 8 t p g x k g k N Y ^ ^ L A x k g p p g k p t t t N ^ W F W { | $.O.F t < % o < 9               ",
"            9 9 t N A N g 9 8 8 9 9 g p g k g M F Y W W ^ W x p t t p g k t t p t g Y Y N M M ^ $.0.| x 4 - # < t 8             ",
"          < 8 4 t N A k t t t t 9 t p p k k g F Y L F N W ` M t 9 t t g x p t t t p x N x p t A ^ { $.W p < - 4 p t <           ",
"          < 4 8 p M x p t p t 9 9 t g k x x N W ^ ^ W W | { N t 9 t t p k p t 8 t t 9 t p 9 8 t A F ^ | Y g 8 p g t 4           ",
"        - < 4 9 t g g t g p t t p p g k A A N L W W { >.-.^ A k k k g x M x k p t 8 9 9 8 4 < < 8 p N ^ ` Y A M g 9 4 %         ",
"        < 4 4 t t t p p g p g g g p g k k x k x M N { O.| W F M k M M A ` L k 8 4 8 9 9 4 < < 4 8 x N M A L L A M 9 < <         ",
"      - < < 4 9 t p g k k p g k g k k x k x k x k N ` { W F N x A W M N Y A t 8 4 4 t 8 4 4 4 4 8 g k M x g M N M g 9 4 %       ",
"      - < 4 9 p g p p k p p t k x k M x x M M M N W ^ ` N x k g M L N F ^ F t 8 4 4 8 4 8 8 4 9 9 t g M g 8 4 t t t 8 4 %       ",
"    % < < 8 p k k k p p t k x k x M N M N N A F Y W Y L M k p t 9 k M W ` Y k 8 8 t 9 8 8 9 t p t 9 k x t 4 - % - 9 8 8 <       ",
"    % - - 8 p M M x p t p M A N N x N A L L Y Y N N x g x x g p t g A { | { F p t p 9 8 8 t g k g p x k 9 8 < - - 8 9 t 4       ",
"    < - < 8 x Y M k p p k N N N F N F Y W ^ ^ L A x t t N Y L N A F W { $.| W N g t 9 t t p M { W F L k t 9 < < 4 8 9 p 8 %     ",
"    4 < - 8 N Y M g g g g x A Y ^ ^ ` { ` ` ^ Y A x k A W ` { ` ` ` $.t.2.$.` ^ N g p p p p N -.| { W M p 9 4 4 8 8 9 p 8 -     ",
"  8 < - < 8 g g k x k g g M ^ ` ^ { $.$.{ ^ ^ W A k x L | ` { O.>.$.6.z.s.2.$.| W F A A x k F | | { ^ Y x 9 9 4 4 9 M x t <     ",
"  8 4 < - 8 9 t t x N k k A W | | | 6.s.O.^ Y Y N t g F ` ` ` | -.>.0.h.z.0.0.2.-.>.>.-.Y N L | O.O.| Y M g 8 4 9 g N A p 8     ",
"  9 4 < - 4 8 9 t k N N x M Y | O.O.0.6.` Y N A M 9 g M A L L ^ -.0.t.t.t.0.t.0.t.h.h.>.Y A F { O.>.6.$.Y A p 9 t p x x g 4 o   ",
"  8 - - - < 4 9 t g M F A x F W ^ { { ^ Y A x M M k x N A N A ^ -.2.t.t.6.0.0.t.h.F.z.$.W Y L ^ O.O.$.>.-.L M k g p g k p 8 #   ",
"  8 % % - - 4 8 t p N W L N N F Y ` ^ W L F x M N M N W ^ Y L ` O.2.i.0.0.0.0.0.h.F.z.2.O.| ^ ` ^ L W | -.^ L L N p g g t 8 %   ",
"  t - - % - 4 4 8 p F | { L A Y W ` ` ` W Y N M M N L ` O.| | O.$.-.6.i.z.i.i.0.i.h.M.z.t.i.>.$.^ A N W O.| ^ Y F g g p 9 4 %   ",
"  t - - - - 4 4 8 p A { { F F F F Y W ` ` ` Y A F F ` | >.>.>.-.-.>.0.z.D.i.t.t.M.M.M.z.M.z.0.O.Y N A Y $.^ W F x k x g t 4 %   ",
"  g 8 < - < 4 4 4 t M A W N A N A F L Y F Y ^ Y Y W -.6.-.>.6.2.>.2.2.i.i.0.0.t.B.h.i.h.K.D.M.$.L A N N | W Y F g x L x t 8 %   ",
"  M p < 4 8 4 8 8 9 g M A N M M N F A N N F ^ ^ L F { $.$.>.$.O.O.-.$.>.0.6.6.0.i.i.t.s.M.D.K.6.^ F N x L ^ Y F N M F M t 8 #   ",
"  F M 8 4 4 4 8 8 4 9 k x k k k M A A x N L ^ ^ Y M N Y { -.$.| O.$.$.2.>.2.0.0.t.2.6.i.i.z.M.t.-.^ W ^ W W ^ W Y F F A g 8 o   ",
"  W L k 4 - < 4 8 8 4 9 9 t k x N N N x x A Y { ^ M k N ^ $.-.>.-.$.>.2.>.0.h.i.6.>.0.0.0.s.i.i.t.{ | -.` { { | { Y L F k 4 .   ",
"  W W F 9 - - 4 4 4 4 8 t 9 p k x F L x k M A Y ` Y N M Y W { $.$.-.-.6.6.0.0.6.2.2.0.6.6.0.i.h.0.$.-.O.{ O.$.O.O.{ ^ F k <     ",
"    W W g < - < 4 4 4 8 9 t t k M W Y k p k k M L ` A x F L W -.>.>.6.i.t.>.$.6.0.t.0.2.>.6.z.M.0.2.2.$.| O.O.>.-.$.^ F k <     ",
"    W Y x 8 < < 9 8 4 8 9 p t g x F L k p g k M A L N x N A ` -.6.0.>.2.6.>.-.0.t.s.t.>.-.t.B.h.t.t.2.$.O.O.| >.0.-.{ A k <     ",
"    L Y A k 4 < 4 9 9 8 9 p p t k k M k g N N A A M M x k M O.2.6.2.-.>.>.>.6.i.h.s.6.2.0.s.i.0.6.6.-.>.-.O.{ -.0.>.{ N t %     ",
"    A F F N p < < 4 9 t 9 p g p p t g k N ` F M M M x k k M ` >.0.6.2.t.0.>.s.B.M.0.>.6.h.s.6.0.2.-.$.>.-.| | $.$.| L g 8       ",
"      F x N A p 8 8 9 t t x L x k g t p A ^ F M M M g g k x Y | 2.6.0.M.s.t.h.D.h.6.6.t.h.t.t.t.>.-.O.$.$.| { | | Y M p <       ",
"      F N N W N p p x k M N ^ W A M x k N W F L A N x x k k A Y 2.0.i.D.D.M.z.h.i.6.0.h.z.0.6.2.>.$.O.$.O.{ ^ { W A k 8         ",
"        L L Y Y A k N N A L W ` A x x L Y W L W L M x k g k M Y 2.z.M.D.D.B.M.h.i.i.h.z.t.2.>.-.-.-.$.O.O.| { W N k 9 %         ",
"        L L W ^ | L F N F Y ^ ^ N t g W W F A L F N g p k N Y $.h.D.B.K.D.K.B.z.z.z.s.0.6.2.>.2.>.-.-.$.O.O.` F x g 8 o         ",
"        F L Y Y W W Y F L { { x t 9 9 x F F N F L F M N L Y $.s.F.R.(.Q.D.F.F.z.B.z.0.t.t.0.0.6.$.O.$.$.$.O.W N x p <           ",
"          F Y F Y W Y Y Y { { k t 9 9 t x F W A F { ^ ` O.O.6.D.Y.(._.Q.F.D.D.M.z.i.t.i.t.t.6.$.O.$.O.$.-.{ F M k 4             ",
"            F F W ` ` W W ` ` N g p t p x Y Y L ^ | 6.h.i.t.h.F.Q.~.).~.R.Y.F.B.M.s.i.h.0.>.2.$.>.2.-.$.| L N x t %             ",
"            F L ^ { O.| | { | ` M x p g N ` ^ F W W >.z.B.B.D.K.~.~.~.Q.Q.Y.F.M.B.s.2.2.-.-.O.$.-.$.O.` Y N N g %               ",
"              L ^ O.2.6.-.O.$.| W Y A N L ` W N W ^ -.6.t.M.F.K.Y.F.K.Q.Y.K.D.D.M.t.>.-.$.$.O.| O.| { ^ A M g 4                 ",
"                Y W $.6.O.| >.>.-.O.^ W W { { ^ { $.2.t.t.h.F.F.D.K.B.D.F.D.B.M.h.t.0.2.-.-.$.| O.| W L N x p <                 ",
"                  Y W ` { { | $.2.2.{ W W ` { O.$.O.$.2.0.h.B.B.B.K.M.B.D.D.D.M.z.t.0.-.-.-.O.{ ` ` L A N k 9                   ",
"                    Y L W W ` ` | { ` Y F W O.$.-.$.>.>.t.t.s.B.B.M.M.B.D.F.z.M.h.0.>.$.$.$.| ` ^ Y F A k 9                     ",
"                      L L Y Y Y ^ ` ` W W ` | $.>.-.>.-.-.6.t.s.M.B.D.M.z.z.i.i.0.2.-.$.$.| ` W W Y F x t                       ",
"                        F L L L ` W Y Y ` ` ` { $.$.$.-.$.-.>.0.s.s.B.z.s.i.t.2.2.2.>.$.| ` ^ W L L N p                         ",
"                          L F L L W Y A L W L Y ^ ` { $.O.O.$.6.0.6.s.i.t.t.6.-.$.$.$.$.` ` ^ Y A M p                           ",
"                            A L Y Y Y A A L Y F F L ^ { | | | -.>.2.t.i.t.t.-.-.-.O.O.O.{ ^ W F k                               ",
"                                L L L L L Y L F F A F W ` ` { O.-.-.-.0.i.t.2.$.$.O.O.| { Y N p                                 ",
"                                    F L L F F L Y L A L ^ { ` { O.O.$.-.2.6.>.O.| O.O.{ W M                                     ",
"                                        L F F F L L ^ ` { { { | { { { { { | O.| { { ` L                                         ",
"                                            A A L Y W ^ ` ` ` | { ` ^ ^ W W W Y L F                                             ",
"                                                    L L Y W W ` ^ ^ F F A                                                       ",
"                                                                                                                                "
};
