/* XPM */
static char *_578849790750[] = {
/* columns rows colors chars-per-pixel */
"64 64 64 1 ",
"  c #020202",
". c #080707",
"X c #0B0B0B",
"o c #100F0F",
"O c #11100F",
"+ c #110F10",
"@ c #131313",
"# c #191718",
"$ c #1B1B1B",
"% c #201F1F",
"& c #21201E",
"* c #232323",
"= c #292827",
"- c #2B2B2B",
"; c #302E2F",
": c #323131",
"> c #3F3F3F",
", c #454545",
"< c #4C4C4C",
"1 c #504F4E",
"2 c #52514F",
"3 c #545454",
"4 c #585757",
"5 c #595758",
"6 c #5C5C5C",
"7 c #605F5F",
"8 c #62615F",
"9 c #615F60",
"0 c #636363",
"q c #686666",
"w c #6A6967",
"e c #696768",
"r c #6C6C6C",
"t c #706E6F",
"y c #72716F",
"u c #716F70",
"i c #737373",
"p c #787676",
"a c #7A7977",
"s c #797778",
"d c #7C7B7B",
"f c #807E7F",
"g c #81807E",
"h c #817F80",
"j c #858484",
"k c #888786",
"l c #898987",
"z c #898788",
"x c #8B8A8A",
"c c #908E8F",
"v c #92918F",
"b c #918F90",
"n c #949494",
"m c #989796",
"M c #9A9997",
"N c #999798",
"B c #9C9C9C",
"V c #A09E9E",
"C c #A1A19F",
"Z c #A19FA0",
"A c #A3A3A3",
"S c #A8A6A7",
"D c #A9A7A8",
"F c #A8A8A8",
/* pixels */
"AAAASAAAAZi4.  o9iNAFFAAASSNi6.              @0rrrNAAAAAAFFBr6X ",
"AAAAZZZZABi4o. X6inZAAZZAAZbw3. XoX+XX..XX   o6qriBAAABAAABBi6X ",
"ZSSBisxxcxie6<.X9iisxxcbZZh0#X @sxxxxj6563o   X$6uNAFBiiAFxxBjX ",
"SZNcrrzzzjiru6.X<534rrrrfd9,   @nASSSBpiiu=@   X6ibBABddnBxxMjX ",
"SZpteujzxjuwr6. . .......X.    @bZZAAZxxBBi3.  X0urdZAABirjht6X ",
"zzurupkzzziru6X     ++#$%%$#@o @bSSZZBxnBBi6   X0rriBBABirjjr6X ",
"o#6uhjzzzjlhr6X    #9rnNbbNbq3.@bDAVcxkklli3.  +0urijjxxxxjjr6X ",
" .6ixcxxxxxjr6@X  +=udZZZZZVp0.@bSAVxljjlkp4.  X30wijxjjjxjjt6X ",
" X7dZAZZZBxhrr04X.<rBAZSZZcvBhXObSSVzhcxxxBdX   X@7ijzzjxjjji7X ",
"X@5iBZBZZBxfrrq6o.3iASZZZBxxZxX@cZZBzjzxzxBf. XX .3rjjjjxxxdw3X ",
"xj*=iiiiiiiir7$X X6dZVxxxxxcAxoo0pzxxjiuhhd9 #hd@ X=rikxxxi6#O  ",
"SN#+16rrrrrrr6X  .<qnncxxjxxBhXX9uhxxziihf9, $BN:% @36wrrr4,    ",
"AN$  #wirwryi7X   .%epZZxzjhi6.X9ijzjzxzxj$  $mABv$   X.....    ",
"SN;@ @49rr6671X ++ $0uBBjjjfi6XX39hjhhjjzd@  $mAAB:$$#        @@",
"AANpX X@0r# .. X67+#eruiurrrr6. .+9uururrq@  $NSAANnNfX      O60",
"ZZAj#X X46@ @@@&er+@6999999991X  .39999794+  $nZZZZAFx$X     +ri",
"usBn93X XX %zbbNBb$ XXXX@OXXOX    X+OXX@XX   @fxxxZAAB03X.   #vC",
"upBBs9X   .=BZSZAN*.oooX  XXOX.X.X        XX @djxxBAFBi0@X .X&nZ",
"BBSZVjo  X<rZZssZZq0zxxd@Xixxj6663X      XiiX@0aBAccBBrr73@@30xc",
"ZAASSxX  X0hBbtuBZfjAAFn@XxFFBddpi=@  @$*-nj.O0inNxxBndair@@rijx",
"SSAASx+  XlNiirrBAZZAAFn@oxFAAAAZBi1.@6rMAAj.@0yrrjjxxAAxd@$jjjx",
"SABNBho  oxBdiidZFAZNNAn@XavBBBBABi3.#wdAAAj.o37qrjxxxBBxd@$jxjx",
"SApri7.  oxAZZZAAAABidZn@ X*eriiAAa3 $vAAAFjX X@0inBxxxxxd@%jxjj",
"ZNsrr6.  XxABBAFFAABidZn@  $0rriBBi3 $NAAAFj#X X0inBxjjjja@$gjjx",
"ipmni9X  +lMidZAAAAABBFn@  #wrrriiu3 $BFFAZn0<XX6iBAxxjji0@#wijx",
"wrNmi7.  @jniiBZAFAAAAAx@  @6qqq000< $NAAZBcr4XO4ecnddfae6@#6qjj",
"ruiur5X  X0iruidBFAAABdwO   @@XXoOOo @wiiiair4X X@@$@@@@@X..X*ri",
"rrrer5X  X6rruuinnBBnx6<X &******%.  O<3qruur4X $******%$@   @0r",
"rrrtr6.  .6iwwrerriir6X. XjMNNZZBx#    @0rrwr6X@xBBBBBZNr7O  @0r",
"44666<.  .<0wrereerrr3X.#*xABBAAAn-@@o X36647<.@nFBBBZAZdr*X @36",
"X.X.X.    .$qrrrrrrrr6X@jnxxxxxxAZr093X XXXXX. @nBaiidBBABr<  X.",
"           @670000060<X@vAxxxxxjBMaii9X   XXXX@*nBaiidMBAAd6.   ",
"            XooXXXO@XX @nFxcAZxjiinZZjX  .197qcnAAZBZVxxxcBf.   ",
".XOOOXOOXX    XX    XXX$nFxxAZxjiinZAxO  X9iuaZAAAAZZZzzhzBf.   ",
"68gxkklxxk#  #hd@  %xxidjxxcAZxxBBdia0X  XjBNnxxxxccxxxzxzf7.   ",
"adCAAAAABb$  #MN:* $hzjjgdjxNnxxBBar6<.  XjBZZvxzzbxhzzxzhu5..$$",
"CCCAAFACi0+  $MABv# X#0wiijjuijzxjjrX    X7dAAZBbcBNzjzzjji3 @aj",
"CCSCAACBsr@  #vZSB:@ o<6wijjiijzjjxr  $$ X<wNBBNzzNNzzzzhd0, #dx",
"CFCCACxvBn$  #hxAAMi. X$0rhjjjllxjxr #vx@ .*rriituhzzzhhse$. @dl",
"CCCCABxxAN$  @dlZAZhX  X30djhjjjjjh0#-Bv@  @0rrrrtfjzjhfiq@ @=hx",
"vvvlvxglAn#  @0ixjd6    X@0irriiir%-xnxdo  #rrrrttuuuuute9+%cmZZ",
"vggllljlAn$  O0thhr1.    .4w000006X%MBxd$X @0w0790rrttqq95$;ZSZZ",
"gllllllxxj#  @0rir%X      O@@@O+@@ $taxxxh@ @@@@+$9tt7%@+#ibZSSZ",
"llllljjjt0O  O<331X.$$&***         @36rinv-@  @@ .,53,..@*zZZSZS",
"lljllgy8@.    .... @7rnBBc#          ..@wiw1.o66X .. . X7ehbZZDD",
"lgllgg71X  .$$$$$$$-rdZAFM-X  @@##@@@X X40r3 @rr=$$@   oqfhbZZZZ",
"llxgy6O.   %vnnMMnNNZAAAAZi2 O6wbvr003. X+66.$nZnnNa. .+xVbhxccz",
"lgdp81X @@ %xnAAZZZZAABBABa6 @0iBAdip0@X X31 $NAAAAj#X #bZbhxzzz",
"xg*OXX Ojj@.@-MZvgxvlvlxxxi3.@0aCCCCBvq4X XX $MFAAch03.#bZxxxxjj",
"gi@ XXO%nB*X #vBvggllglllji4 O0iCCCCCMawO   X&mCAAxhw3.@cZxjxxjj",
"#@ &jxxxZAcr.@rfMCvlllllxli3.@0iCCaaCCMjO  &lxxxxzi6#X @vAvxjjxx",
"  #>ZANNZBFjXX10BCxlvglljhr3.@7iMMiaMBCv=@ &mMljhhi4   @xNxjjjxj",
" XlAFBirjxAj. .$vCxlkkjjrry4 @0rgllgypBMy8O#wijjirr3.  X0irijjxx",
" OxAANiixxZx*@ @mAxgkkjjiw0, O0rglvgiaCCgy@@qrjgir6,X  X36erhhjg",
" XkBxxjjjxBBBho@vCxlklxjr0#. @qijllljxAABv$@0irur0$.    .@6rirri",
" OkBxxxxxxMCFxo@gvljxlxli0@  @qilxxxxxAASn$@60rw04O   @+ .370096",
" OxZxxZBxxAFAxX.O$8aCABBi0@  @9iBAZBxjxxAn$ X$q0#X   @xj@ XOXOXO",
" XjBxxZBxxBFBj@X .2ymMMvq5X  +4qvMCBjjjxBn*  @66X XXX=Nn%XXX    ",
" X0dzjiajxxxxj61X O@$$$@@+    O@#*qiiiiiai0,  @@ Xixjxxxxj0,    ",
" .<0ddridjxxjjr0X  .&&&&**.      .,436wrrrr3.   %:nFZBxxAZj7.   ",
"   $wrrriiMBxji0X  &nBnNZv$       .X.@0wrrt4.  @xBZAFAxxZAFhX   ",
"   @456469fjii03X  *BABBAn-#$#@@@@   o14666<  O*xABZABxxBZAhX   ",
"    ....XXXOXXX.   *MBvcxjhjncw006@   ....XX @6wjxxxxxjjxxlr.   ",
"                   *MBxxjjxxAMirrq@          @0rjjxxjxjjxxkq.   "
};
