/* XPM */
static char *_2281_4fa15908f5419ee201d56169cb014d705796dd66ae6b8cdc5dbc601e1b3710b8[] = {
/* columns rows colors chars-per-pixel */
"64 64 159 2 ",
"   c black",
".  c #010000",
"X  c #010100",
"o  c #010101",
"O  c #000201",
"+  c #020200",
"@  c #030301",
"#  c #000002",
"$  c #010103",
"%  c #030102",
"&  c #010302",
"*  c #020202",
"=  c gray1",
"-  c #020403",
";  c #040402",
":  c #050503",
">  c #060503",
",  c #000004",
"<  c #020204",
"1  c #030305",
"2  c #010006",
"3  c #020106",
"4  c #030406",
"5  c #040404",
"6  c gray2",
"7  c #060604",
"8  c #070705",
"9  c #040406",
"0  c #050507",
"q  c #060606",
"w  c #070707",
"e  c #080806",
"r  c #040308",
"t  c #070709",
"y  c #08070C",
"u  c #070908",
"i  c gray3",
"p  c #090909",
"a  c gray4",
"s  c #0B0B0B",
"d  c #0D0D0B",
"f  c #09080D",
"g  c #0C0C0C",
"h  c gray5",
"j  c #0C0C0E",
"k  c #0E0E0E",
"l  c gray6",
"z  c #10110C",
"x  c #17170D",
"c  c #16170F",
"v  c #0E0E10",
"b  c #101010",
"n  c #111111",
"m  c #131311",
"M  c gray7",
"N  c #131313",
"B  c gray8",
"V  c #151515",
"C  c #141416",
"Z  c #161616",
"A  c gray9",
"S  c #171812",
"D  c #1F1D11",
"F  c #1B1C16",
"G  c #181818",
"H  c #191919",
"J  c gray10",
"K  c #1B1B1B",
"L  c gray11",
"P  c #1D1D1D",
"I  c #1E1E1E",
"U  c gray12",
"Y  c #252316",
"T  c #23241F",
"R  c #25271C",
"E  c #24251F",
"W  c #282A1F",
"Q  c #202020",
"!  c gray13",
"~  c #222222",
"^  c #232323",
"/  c gray14",
"(  c #252525",
")  c gray15",
"_  c #272727",
"`  c #282923",
"'  c #2B2D22",
"]  c #282828",
"[  c gray16",
"{  c #2A2A2A",
"}  c gray17",
"|  c #2D2D2B",
" . c #2C2C2C",
".. c #2D2D2D",
"X. c gray18",
"o. c #2F2F2F",
"O. c #2F3020",
"+. c gray19",
"@. c #313131",
"#. c #323232",
"$. c gray20",
"%. c #343434",
"&. c #353535",
"*. c gray21",
"=. c #373737",
"-. c gray22",
";. c #393939",
":. c #3A3A3A",
">. c gray23",
",. c #3C3C3C",
"<. c gray24",
"1. c #3E3E3E",
"2. c #3F3F3F",
"3. c #414141",
"4. c gray26",
"5. c #434343",
"6. c #444444",
"7. c gray27",
"8. c #464644",
"9. c #464646",
"0. c gray28",
"q. c #494949",
"w. c #4C4C4C",
"e. c #4E4E4E",
"r. c gray32",
"t. c #535353",
"y. c #5B5B5B",
"u. c gray36",
"i. c #5D5D5D",
"p. c #5F5F5F",
"a. c #606060",
"s. c gray39",
"d. c #656565",
"f. c gray40",
"g. c #676767",
"h. c #6C6C6C",
"j. c gray44",
"k. c #717171",
"l. c #727272",
"z. c #767676",
"x. c gray49",
"c. c #7E7E7E",
"v. c #818181",
"b. c #868686",
"n. c #888888",
"m. c #898989",
"M. c #8D8D8D",
"N. c gray57",
"B. c #929292",
"V. c #979797",
"C. c gray60",
"Z. c #9A9A9A",
"A. c #9B9B9B",
"S. c gray62",
"D. c #9F9F9F",
"F. c gray63",
"G. c gray64",
"H. c #A7A7A7",
"J. c gray66",
/* pixels */
"A k o A i = *   o *   l A q w * = o o   o = * s 6 o 5 N = = = 6 B = * * = *   = = 5 o a =         U k.V   * *   Z <.= * * 5 i n ",
"p = q ] g * * * o * o w n p * * = o o   g *.6 6 p 6 * l = * 5 s +.w o * * * * * o * = o o o     5 h a 5 o o = * g J o = = o A a ",
"i * * * = 6 * q *   o 6 o.A   o * o o   p ! * * = * = * * * = * * * * = o * =   k p   o o o     q h * o 5 * o * = o s =   M D.l.",
"q   o = = o * * * * * 6 ~ g * * = 6 * * *     o o * = *   o     o * * * * 5 o   = 5 N p = o * = = 5 * o *   #.K * * w = o p d.0.",
"* * * = q A h i a   6 o U G   * o * o * * o     *   q w o o       * * * = a q o 6 o n w p h o *   b p   o o J B * o * o * = q o ",
"o * o o q z.,.  w *   o 5 5 g o w h = * * o   o   } -.a * * o o   = * * = p.^   s * =   ! )   o s q * = * o o = = o o o * = = * ",
"* * * 5 6 j.9.  5 5 n = * = * s q q U = 5 q 5 h q x.v.  = * 6 6 =   o o   P g * N = * 5 * 5 p   w 6 o = *   M A 5 5 5 = = * * g ",
"* * * = * K B * = s g = 6 = o 5 = ..K o = * * l X.<.n = o   b -.q q o o 5   o 5 q o = * g 5 =     *   s 5   b G 6 = = = * * * 6 ",
"* * * = = o *   &.n   q = = * *   s.*.  w ..g   5 * o o *   6 k k h   * M 6 o * o o o   * *   o o g _ i o = 5 5 * ( h * * = * o ",
"      o o o = * B p *   = o   * * q 5 w ] ! w V q   s *     o   * * * o       o * o 6 [ [   * =   +.F.A   * = w 5 b w o 5 = o o ",
"      * * o * =   * * * = n = 6 5 q * 6 a   * w 5 * w *     o o = w a o o     = a   _ u.0.g g * w G q.p *   *   = o o   o   * o ",
"      o w = * o 5 o   = 5 p w * b -.= = * 5 * * o = o       5 * o * * o         = w w q 5 i 5 * 6 5 l =   k M K p * 5 i   k w   ",
"5   q k p 5 o o *   ~ l     i q 5 a 5 = * o q = o * * o o o = * *       o * o o o k = o * * q *   *   = o G J U s o 5 * M A.r.  ",
"* = 6 g o 5 = i p o b q   * o   o   = o o = G h   * * * o o o * *       *   * = * 5 * * * o i * o q = 5 5 * * o = * * o a a.#.  ",
"o i 6 o 5 =   = 5 = h Q   o 5 * o o * 5 n s l s   = o q w o = * *       5 { n o = * * * * *   o o o o = = = * = * * * *   * o o ",
"= 5 5 = * q H a q o w M k g = * o o 5 q P p * q i o o 5 5 o     o *   Q / n.>.o 5 = * o * o o * o o * o o   * * * * o * 6 * * = ",
"  M Z k q a w.h 5 = 6 = v.i.  * o * = 5 = * q a 6 o o i w   o     * 5 k b Z s * = *   o o o 5 * = 5 *       * o   i w   * o * 6 ",
"* 6 b c.@.  p i 5 o * * 2.+.  5 = * = o 5 * 6 N w o   * o *       h i * 5 * 5 =   n h     o * * = o * X     * * = * =   n B o @ ",
"o * 6 [ l     b a o a p o   M p = 5 * g 5 * h N.e.6 = B I o * *   +.A   i * * * o b i w u.^   = < * + : 6 ; * q B o 9   l n o o ",
"* *       g n 6 = o h h * q w q * q 6 a = o p i.o.w i i k = =   * 6 6 o   o o * = h A b b.o.  5 w a   9 f 0 @ 5 6 =   * * o *   ",
"  o s 5   i a 6 * = = o * o o o p -.w   * q 5 o * o * * 5 5     * o = o * * o =   k X.w i o q B < 5 # R F 1 5 * o o o   = = o o ",
"o * q * o   g a = 5 = 6 o * 6 * 6 l * * * 5 w 5       6 = / 4.w 6 = * =       o     o 5 o o a M p 6   W S o * 5 = o * o = 5 9   ",
"* * o * 6   h s   b s o o o q p o   * = o o 5 *       *   f.H.V = = * *             = * 5   h h G A = | @ @ 5 = = o   X * 7 ; X ",
"* * * o q = * q i G N   =   * g * * * * * o           i o B { = = = = *             6 _ 6 * 5 6 a q @ y 1 @ 8 >.j # 8 @ t m E   ",
"= * 5 q p #.= p h 6   o o * = * = = * * =       * * * q * o   * o h h o * *       o q %.k   5 B 6 * o   o = = n = = k 6 b %.k   ",
"* * * 5 w K 9.p g.[   * * *   = 5 = 6 l o o     * * * * * o o * 6 * o a i 5         = ~ s   * * * * * *   o * o w o q 6 * q 6 o ",
"* * * = 5 5 } n _ b   o o * o p [ = 5 a 5 o     = * * * o o o o   = 5 5 * *         = o = * q w o o o * q o = = n = w i * * = o ",
"q o o * o * * k o   o   = * * 6 s *   q 6 = o o o o o b a 6 6 g G o i * 6 =   o * 5 * = 5 5 s b * = h e 5 6 a w o.N p     * *   ",
"* o = o * = q * 5       * * * * = #.^ 5 P i   o       s q 5 q g ^ $.* 5 5 o o o g ;.=   i 5   =   = a i 5 o = 5 q I l 3.~ * =   ",
"o o o * * * * = o     o o * o 5   i.m.* G q = w       q q * * * i G q 5 5   o * 6 k =     o * 6 g * o o s =.6 * 6 ! A D.t.  = o ",
"= 6 o * o * 5 = = * = 6 5 o * * o J } * *   o   o * * q 6 *.6.q * 6 w o o * = * = o o o o * = a (   = 5 1 C 6 * = o * H h o = 5 ",
"N N ..p   5 6 = q = * N n   * o o   5 q 5       * * * 6 * d.M.p h *   o n l 5 * * * o * o * = * 5 = * 1 v t o o * 5 = o i n {   ",
"B q V 5   = h * o o * *   * * o =   U V   o o   * * * 6 5 g V q h X =   ` T = 1 * * * 5 = o * o * = =   7.2.k 6 = * * o = p B   ",
"i =   o o 5 h o * o * o * * = o     o *   w U o o     o     g h   = o   X o o 6 * *   o   g B l l   * 5 6 H ~ n q o w ) 5 o * o ",
"* o * * = 5 q 6 o o = o o o     o         = w = o           q q =   o 5 9 p (   g k   o   k n L H   5 5 5 = * q i o 6 A 5 q 5 * ",
"6 o = *   o * s = o = o   * 6 o           * * = o           o * = o 5 w = M ;.  i *     o = 5 5   * o = Z <.= q i = * *   s A w ",
"  * =   X.P   q = o     o o *   o   o     * l p o * o * o * s 5 o 5 o q + o * 5 l 5       6 b 6 = * o o a b         o *    .G.] ",
"    *   A n 6 w 6       6 w             o   #.J   5 * * o 6 ! 5 = * A B N q w = a * o o * * J a   a 5   o   o         o   G i.Z ",
"*   i P 5.N Q ( 5       * =   o o         w h * 5 q   * * * = 5 p = l ;.g.6 6 *   o o o o :.S.U   w 5 q * o             o 5 * * ",
"  o    .J.#.q b * * = = * *   b b   o       q p = o o * * * * * o *   s M 5 * = 6 o V @.   .s.k o   o = o 5 5 5 5 w 5 g s   = o ",
"  o   w J w = * * o * 6 * * o 5 6 o       * * = 5 o o = * * *   o = 5 H ( * o 6 w 6 M G 6 *           p A   _ ] w n   g i   *   ",
"      = o o o * = o   o * * * = 5 *     o o G n   = * * *   h h   * = w g 6   b K N B = 5 o * * o o   b ) w g p q i o   * o * o ",
"* * * *   A i   *       * = * = * *       o h a   = *   * o 5 6 o o     o o o * i P o   o o o = * = = * o s q w o h h.+.  6 = * ",
"* * = * o q 5 * *         o * o = s o     * o o o = * o * =   * *   o       o * o *       o *    .N * * *   N / * l j.<.Q 5 5 o ",
"* * o * 5 * o   o       6 6   5 q *       * * * o = *   = 6 * * * o     h 5 o = = = o       o o M a = * o o 5 w 5 5 o q B = 5 w ",
"o * k w   o 6 b =   *   5 5 o 6 a * * o * o = w o = *   o o * * * s 5 = h q * * * * o   o = * * * 5 *       6 o = = o w { q q l ",
"= o n w   = a h i 5 o o * = o h 6 * * * * o o * * o *       * * * * = 5     o * * = * 5 5 5 = * 5 o o       = #.k   i w 6 6 * * ",
"= * o o   6 q   i w o o * * * o o o * o * o * o * * *       * * * o * = o 6   * = * o 5 o ] Q   = o o       o ! i   n n   * * o ",
"= * *       5 a q *   o 5 * o o * p 5 * o   o o o i 6 o * o o = 5   * o   6 5 = r < o p P i q     o * o     o   o o = w 6 o *   ",
"o   o       q p 5       *   w k o P s   o       o * w 6 * o o o = * * o o o * * c z o w L   o * = * o o       * * =   * 5   o   ",
"a a   o     i i = o     * * = q = * * * o     o *   5 = * o   Z _ = = o 6 o *   ' T o = * * * = o = *     o   * 1   * 5 = o o   ",
"U K   * w i   q a   o o o $.K   = * o     o = 5 * = * *   =   h.G.w   5 L 5 = o + 6 $ w i * * = *   * * o o 5 5 G 1.w 9 + * * * ",
"* 5 6 o p p * * o * = =   U V   o         =   I A   5   +.Q   / ;.=   = * *     o o * o 6 = * o o   o * * * 5 = Z 6.6 u - * * o ",
"= 5 k o o *   p 6 o   o 5 * = 5 k 5 o     5   l M p V i L Z 6 k i     o o * 6 p 6 6 * * o o b 8.h   o o o * o * $ o = * o & - w ",
"= = M ! = 5 * = o w #.h   5 * l y.M =   o * = = 5 a b w o = * a p 5 w         k M 6 5 w = o ~ V.K   = * * * = 5 6   ;.#.  > 3 4 ",
"6 K w I h o   * * a t.N   =   e.C.i 5 = k -.o *   s b   q i   o * q 6 o o     o q l h K q   I ^ q * o * * o * 5 5 + _ [ d 2 O.D ",
"o 5 o = 6 i * * * 5 * = = *   G #.6 o o w Z o * * q q * q A     * o o = o     = q H B B = = s w o *     * * 6 ^ q < O % 5 , Y x ",
"H o = * w 6 o o   * 5 q o * o     = o   o     o o o   * o * * o = = o * o     * =   / }   6 = o o * o Z 6 o * p o   = = * @ . 6 ",
"b = 5 o o * o 6 o i 6 = 6 * = * = o o     o           * * * = o o * o *     o * = h = 5 6 o o * * * * g 5 = o         = * o * = ",
"= 5 6 i q *   o = a N * * * * o * *                   * * = i   o o = o       * * 6 = 6   / V o = * * * = * o     o o o a * & o ",
"* 5   r.a.  g   @.H ! =       o o   M N * 5     * * o = = * * o * * = 5       * * 5 * o o L b * 6 o w = o o     # $   I B.@.  1 ",
"* =   { $.* g o s q * 5       * * o 1.>.  6   o * * o = 5 = * =   ^ Q   o     o g l     * a a 5 * = o o 5 *       5 6 I S.%.  = ",
"o o o o o 6 a 6   * w *       * o o q q * = * * * *   s G * * *   k k *   o   5 6 p = *   @./ o = 6 N * *         5 5 5 k 6 o $ ",
"= o 6 g * * = o o o * *   5 =     o o o   5 5 = o o   5 i * o   o o o o w 6 = o o = o = = * * =   =.Z.(   * o o & = o 5 q = i l "
};
