/* XPM */
static char *_578849798715[] = {
/* columns rows colors chars-per-pixel */
"64 64 49 1 ",
"  c #1E1E1C",
". c #22211F",
"X c #262523",
"o c #282725",
"O c #2A2927",
"+ c #2D2C2A",
"@ c #302F2D",
"# c #32312E",
"$ c #312F30",
"% c #353432",
"& c #383735",
"* c #3A3936",
"= c #3D3C3A",
"- c #413E3C",
"; c #43413E",
": c #454441",
"> c #494644",
", c #4B4946",
"< c #4E4C4A",
"1 c #524E4B",
"2 c #54514E",
"3 c #514F50",
"4 c #565351",
"5 c #595653",
"6 c #5D5956",
"7 c #5E5B59",
"8 c #615957",
"9 c #615D5B",
"0 c #5F605B",
"q c #65615E",
"w c #676360",
"e c #6A6663",
"r c #6D6966",
"t c #6F6B68",
"y c #716D6A",
"u c #75716E",
"i c #777370",
"p c #797572",
"a c #7D7976",
"s c #7F7B78",
"d c #827E7B",
"f c #85817E",
"g c #878380",
"h c #898582",
"j c #8E8A87",
"k c #8F8B88",
"l c #928D8A",
"z c #94908D",
"x c #9A9693",
/* pixels */
"967654346777457=uq5555244557543&w656652<1441124:i021527;q64466qw",
"777743334674667=iq65555212554<3&q567664421111<3;y034229;7744567q",
"00675433<46777q:rqq776621124244&e06qwq074644633:e5,2226*576679qw",
"<::::=%%&&&&&&=OO######++OO+o+@o=;=;;=*&&=&&*&-+%@++++@X*>====;:",
"dfgsdsspptt*7eetttqeerrerrt;54667qqq0w0w606%1244q0wrqeereet:6twe",
"eeetwww0007,atwreeeqwqrewqe>e42257qqq0q76q6;y00qewwr909eewt>eeww",
"44666755444:y7542<<><2,<124:w<<<22234444112;t226765654<3435-9764",
"66677667767:i7757<<<2222156,e62312<<2442224,y5467q744546445:w775",
"64567547qqq2u45722<256766504e04112522522526,r21557655456344;w854",
"464654249974u514564255596464e05112515955259,q22136655354446>9964",
"77677234644<u7599707659907q2q55456778q98559,q6554688568669q,8w97",
">;;:=*&*&&=%*=-;;;;;=*%**=;&=;-;;;;;--;****#=;;;;;;-==-;:;;$>3<3",
"fhhdsfspppapparOeprttt0o5qee00qerqruyry-6q8q0qqq0we%8yttyyuupdda",
"ryutettewwttryrOfsquuq7Ot75q3346599q995#iq897q79770%iperetrwqyyr",
"2244<<<23445469@ft252>>Oq2,<33342255251@yq855655757&ie1445534455",
"5477665<4477799+fy25<22+q2,253355522255+uq966655577*ue2448884457",
"444677422558qqqOft<,,3<Ow<,42<<52522162+y9557565455$u73334644345",
"<3466523225880qOsi<<1<3@e4,<<<355222552+yq557969575&i0<453344443",
"<<<3421<<255556#rr<23<<#e7<<24566552262#9511<<,<<<<$053543<,<3,,",
"#+@++++@@.O#@+@.#%@++#@X*Oooo@%%%#@OoOOO*%OoooXXXX. &&&&==%%%%#@",
"papppaaiaiu*qq20qeewetttq0e*6rqttuutuuiadfeO@=&&$$$++$$;dayyttpp",
"ytrrtrttqty;ddrtusasdssafaf>te5qq77qqqqeeeq%%>;::==;===<le9qqqq7",
">,,,:,>:;>1-iq><22222<<12<2@eq3222275555665%#:;>:;::::=,f6299644",
"<<4141<3<<2;yq,<,2666645222+q7<2557q8668584&%;;;:;;;::*:g5146444",
"2<2572,<<26:uq,<,,565665312+q0,<25988q66555%%-;;:;-;:;=:g5,11555",
"645652<,<47:ie12<,255656522#qq,222686752582+#;*-==;:::->d6<<1798",
"9q767522557;rq<<,<455422244%q6;<,;<,1;;;;1,o%>;;=;;;::-1p4449qq9",
"=;>;-;;;-=-%###OO@+@@Oo.oOO.;&####%+O+O@OO+.;52<2577889q:%&&=***",
"tqrqryttyuuuuut#,06eererttyuyyu&6qqqqqqqtreerey22treyyiyyiiipip:",
"p766567977q77qq@wr5qrw7qqqrqryu;yq68888q9755459-tu708errreqreee;",
"u<<<<<255255559+q9><2<>><,<2256&t82211222,<<<15=q9<414465411222%",
"r,,<12552522257#qr<,,,,22<<455q&rq11111521222<6-9w3421144442242*",
"e,,1125252<1226@qu5;2;2;111155q*qq22<<<25252127;7q22211<2232314=",
"q>12252551<2256Oqy;221212212228;rq2<,2256754257-8e2525522544644*",
"91555858522698q@6q256225565566q;q85445579975559>251>>,,,221,:,:+",
"&&**-&#&#O#&##&.@*#*;;*;;;;;;;;%#;*==;=====*%**#+%@@####%%#+@#OX",
"..O+@o.;620qqq7qrqqqqqq#1qqipiiyttuupap<9eytyyuupiipaii%.&%&&#++",
";;;;;;;efuuuiyuipddpidy;riqrqyyrqqeuuye2urrrrw79qqeqqqq%O<144<,,",
"----;>;qd952<1252525562#rq5555255225766:y97q75<12121111#O>14774<",
"----;,<tdq25266212866qq*yr6655526657776:u90eq7225112111#O>47705<",
"-;;;1;;dfq522552;525888-ut6651555567875;y7qq95222<2<<22%+<476974",
";;1;;1;rfq6655521215665;piqq62262679652=r99989522<<2446=%>,46423",
";;;;;;;yi552<<2<;;<<11,&qq5665255255<>;%522559554<<2645%&,::<,,<",
"8888qq8y2&&&@#@#*-&&#&&%=;;;;;;&#*=**#%##%**;;>;=*=:==:O2w7w0wrp",
"yeeddrqeqqrqert:qtqqquppsffsfff1qfupaadasdffjfh*2gyssdfdhfhffhzr",
"dq888512122666q<a0625qqq6qqqqqq;dd8qrqq9qqqqqur#9xrwwewwwqqq0ta<",
"y88511;1;<,2650<i62<,546qq05556*dt12265455<,141Oql6664<,,,<1147:",
"y;28115;125660q<t62,15500521256*ay1557967795562Owk77q752<154447:",
"y2528;6;658880q;y5;;55255512568;iy2656qq66q6251.6k69q64<,1<5546,",
"d;5;;8;6;55688r;y22115212562265;ip6qqqqqqqq8655+5j9wq9511279qee,",
"d;85;;6;8;q6668;r2;25525500556q;qq;;;;;1;11;;;;@2a<22<,,>,45514=",
"-@--;&;%;%;;;**;;#%#%%#%&**#%&%#;;#%&*%%**%@+%%O*;++O@++O%%&*+Oo",
"ddffdufyrfy#yfyiuuuuppppppp.qpqupppddpffffr.qduppiu=9eq9weyiairy",
"e8rr88qqerq%ie656666889qqq0+pqqqqq66qqqq6q8;fiqyytw*pq22149ww658",
";;88;;556;;;u8;0556;;556555Oyq566256q66q665*fq5q975%u722<1468756",
"882;258898;#i9;055612556551Oq65q8qq656q6566*fr58qq9%uq7544566555",
"558;;6666;;;i5586551512255;+q5556q655662256;fq6qqq8%rq6665444444",
"8866q;6665;#y80q86525;221;1#621215525222255;fq66558%rq6974<<3<<<",
"qq80q066;;;%p68q86652;5;;21#51,55661;122255-rq21<52+qqqq6443<<3<",
";;&;%###;%;X;;****##@@#@.+..O#%&***##@@@@%-.#-%*;#+O;;-;:;;;===*",
"eyrrr86O;650rtytyyrqqqy;566665qqqrqqqqq;qdidpppytiiuiq2ierrtttiu",
"yuupyre*990qqqq06655522%q555655q90866582iy8qqqq82856q<qa46433144",
"255;;5;#8q668q86525;1;1%q222;2;56255225;yq22568;<11<2;6u<2222243",
"80888;8&6q865;568522252&555555655568660;rq55525255214>0u<4664644"
};
